<?xml version="1.0" encoding="UTF-8"?>
<svg width="30px" height="30px" viewBox="0 0 30 30" version="1.1" xmlns="http://www.w3.org/2000/svg" xmlns:xlink="http://www.w3.org/1999/xlink">
    <title>direction-sign-post</title>
    <defs>
        <filter color-interpolation-filters="auto" id="filter-1">
            <feColorMatrix in="SourceGraphic" type="matrix" values="0 0 0 0 1.000000 0 0 0 0 1.000000 0 0 0 0 1.000000 0 0 0 1.000000 0"></feColorMatrix>
        </filter>
    </defs>
    <g id="Hifi-FIX-BGT" stroke="none" stroke-width="1" fill="none" fill-rule="evenodd">
        <g id="direction-sign-post" transform="translate(-33.000000, -160.000000)" filter="url(#filter-1)">
            <g transform="translate(33.000000, 160.000000)">
                <path d="M29.776069,8.47086731 L25.4878374,5.35027934 C25.3722723,5.26605053 25.2250318,5.21977523 25.0729532,5.21977523 L18.0534238,5.21977523 L18.0534238,2.836481 C18.0534238,2.79137232 18.0468513,2.74758578 18.0341629,2.70558803 C17.8654707,1.18075881 16.3548177,0 14.5461237,0 C12.7382511,0 11.2283284,1.17912557 11.0580844,2.70263264 C11.045396,2.74548589 11.038641,2.79028348 11.038641,2.836481 L11.038641,5.21977523 L7.92002669,5.21977523 C7.56721542,5.21977523 7.2810412,5.4635177 7.2810412,5.76419044 L7.2810412,12.1578804 C7.2810412,12.4585532 7.56721542,12.7022956 7.92002669,12.7022956 L11.038641,12.7022956 L11.038641,13.8968204 L4.92747507,13.8968204 C4.79913027,13.8968204 4.67379783,13.9297964 4.56772623,13.9913931 L0.279312032,16.4803816 C0.106694666,16.580554 0.00263131446,16.7462896 3.70548563e-05,16.9242356 C-0.00220671855,17.1021815 0.0975663018,17.2697837 0.267536443,17.3732225 L4.55585936,19.9840823 C4.66430433,20.0501121 4.79401838,20.0855769 4.92738378,20.0855769 L11.0385497,20.0855769 L11.0385497,28.9111696 L4.18378724,28.9111696 C3.83079339,28.9111696 3.54480175,29.1548343 3.54480175,29.4555848 C3.54480175,29.7561798 3.83079339,30 4.18378724,30 L11.6776265,30 L17.4144383,30 L24.9079124,30 C25.2607237,30 25.5468979,29.7561798 25.5468979,29.4555848 C25.5468979,29.1548343 25.2607237,28.9111696 24.9079124,28.9111696 L18.0534238,28.9111696 L18.0534238,20.0856547 L22.080219,20.0856547 C22.4332129,20.0856547 22.7192045,19.8419122 22.7192045,19.5412395 L22.7192045,14.4413133 C22.7192045,14.1407184 22.4332129,13.8968981 22.080219,13.8968981 L18.0534238,13.8968981 L18.0534238,12.7023734 L25.0729532,12.7023734 C25.2302349,12.7023734 25.3821309,12.6529094 25.4992478,12.5634697 L29.7873882,9.29036774 C29.9246788,9.1856067 30.0022699,9.03550365 29.9999494,8.87847875 C29.997797,8.72137607 29.9161894,8.5728285 29.776069,8.47086731 Z M12.316612,2.92778721 C12.3203546,2.90888823 12.3230019,2.88960037 12.3244624,2.87000143 C12.3966678,1.87123284 13.3726725,1.08883041 14.5461237,1.08883041 C15.7194836,1.08883041 16.6952144,1.87123284 16.7676024,2.87000143 C16.7690629,2.88936705 16.7717101,2.90842158 16.7754528,2.92708725 L16.7754528,5.21969746 L12.316612,5.21969746 L12.316612,2.92778721 Z M16.7754528,28.9111696 L12.316612,28.9111696 L12.316612,20.0856547 L16.7754528,20.0856547 L16.7754528,28.9111696 Z M21.4412335,14.9857285 L21.4412335,18.9968242 L5.13231556,18.9968242 L1.75573365,16.9410346 L5.12446516,14.9856508 L21.4412335,14.9856508 L21.4412335,14.9857285 Z M12.316612,13.8968981 L12.316612,12.7023734 L16.7754528,12.7023734 L16.7754528,13.8968981 L12.316612,13.8968981 Z M24.8285869,11.6134652 L9.47193988,11.6134652 L8.55910347,11.6134652 L8.55910347,6.30860565 L24.8371676,6.30860565 L25.9060077,7.08634166 L28.3908398,8.89457788 L24.8285869,11.6134652 Z" id="Shape" fill="#000000" fill-rule="nonzero"></path>
            </g>
        </g>
    </g>
</svg>