<?xml version="1.0" encoding="UTF-8"?>
<svg width="20px" height="25px" viewBox="0 0 20 25" version="1.1" xmlns="http://www.w3.org/2000/svg" xmlns:xlink="http://www.w3.org/1999/xlink">
    <title>freesia</title>
    <defs>
        <filter color-interpolation-filters="auto" id="filter-1">
            <feColorMatrix in="SourceGraphic" type="matrix" values="0 0 0 0 0.160784 0 0 0 0 0.262745 0 0 0 0 0.215686 0 0 0 1.000000 0"></feColorMatrix>
        </filter>
    </defs>
    <g id="Hifi-FIX-BGT" stroke="none" stroke-width="1" fill="none" fill-rule="evenodd">
        <g id="freesia" transform="translate(-245.000000, -407.000000)" filter="url(#filter-1)">
            <g transform="translate(245.000000, 407.000000)">
                <path d="M19.9999976,9.10292022 C19.9993692,8.88941864 19.8752547,8.6202187 19.362578,8.4228585 C19.3918852,8.34931966 19.4064535,8.27524985 19.4062258,8.20102076 C19.4057137,8.03912911 19.3242226,7.89189214 19.1767762,7.78638912 C18.7057556,7.44938477 17.5582227,7.58106443 17.1071196,7.69288595 C16.5630303,7.8277514 16.4460292,7.87872417 16.2703568,7.96426286 C16.2582924,7.97010349 16.2458298,7.9762096 16.2325704,7.9825812 C16.1841424,7.97976707 16.1354868,7.97859895 16.0873433,7.97859895 C15.3991081,7.98040423 14.7643087,8.27970997 14.3817219,8.77149102 C14.1341758,8.77924312 13.8896457,8.79644643 13.6475057,8.82283546 C14.0970154,8.27365695 14.4089235,7.69277975 14.6165208,7.21751176 C15.0464544,6.92314401 15.42557,6.49837092 15.6919524,6.01041284 C16.0168354,5.41519955 16.2081572,5.21189253 16.450411,4.95453313 C16.5520472,4.84653457 16.6673411,4.72414682 16.7999917,4.56464453 C16.9828344,4.34450588 17.1468977,4.12054426 17.2745405,3.91697176 C17.781185,3.10894715 17.9355172,2.336338 17.6874589,1.85023829 C17.5534425,1.58767543 17.309197,1.41861574 16.9995651,1.37422695 C16.8652073,1.35500597 16.7227118,1.3577139 16.5757775,1.38049235 C16.3801307,0.697404129 15.9876989,0.261162166 15.4859484,0.189216224 C14.970085,0.115146416 14.4697573,0.432133335 14.0990071,1.05161179 C13.9530972,0.970957999 13.79996,0.91552511 13.6410183,0.892693557 C13.3316141,0.848464059 13.0440622,0.941170786 12.8317416,1.1540883 C12.4386269,1.54827772 12.3373322,2.3284797 12.560522,3.24094539 C12.5870977,3.3497404 12.6187381,3.46124333 12.6546465,3.57237459 C12.6547603,3.57274627 12.6548741,3.57311795 12.6550448,3.57348962 C12.789801,3.99066989 12.9069728,4.24431252 13.0103162,4.46811485 C13.1592992,4.79062381 13.2769832,5.04538147 13.4024635,5.7142398 C13.5089937,6.28216142 13.6670818,6.70996102 13.8944828,7.04000971 C13.6175156,7.6525856 13.1578765,8.43124777 12.4411308,9.03453175 C11.1449564,9.35045674 9.96128747,9.93335161 8.96205464,10.715412 C9.09994069,10.2947804 9.20203213,9.8640074 9.26650795,9.42781854 C9.73138254,8.91150685 10.0802234,8.23940962 10.2535627,7.52239265 C10.4733381,6.61295346 10.6574897,6.27589602 10.8905245,5.84921145 C10.9856164,5.67516068 11.0933416,5.47790667 11.210172,5.22776842 C11.3704795,4.88380841 11.5052926,4.53974221 11.5999861,4.23268436 C11.9678909,3.03954985 11.9027891,2.00777601 11.4257933,1.47256192 C11.1824582,1.19948592 10.8385114,1.06801865 10.4578024,1.10258456 C10.2509449,1.12132767 10.0376,1.18525602 9.82579152,1.28682989 C9.33957674,0.418168919 8.68087636,-0.0551344958 8.01597309,0.00513018625 C7.32916057,0.0673594439 6.8056716,0.665174471 6.5680842,1.63190493 C6.30357972,1.54047252 6.05017213,1.50187126 5.8186738,1.52289753 C5.43779418,1.55741035 5.12753634,1.74802727 4.94497816,2.05965143 C4.58720285,2.67042203 4.73607198,3.69465615 5.34310066,4.79938476 C5.41634018,4.93265732 5.49623783,5.06662013 5.58074496,5.19771572 C5.58171239,5.19930862 5.58273671,5.20090152 5.58376104,5.20244132 C5.91063577,5.70898323 6.15607636,6.0063244 6.3725512,6.26867488 C6.69305233,6.65702367 6.94617538,6.96376294 7.36222363,7.82700805 C7.70560144,8.53956491 8.08568436,9.06442516 8.51971528,9.42394248 C8.34705895,10.4960698 7.92577524,11.5306046 7.29148803,12.4403093 C7.25990455,12.4836892 7.13670055,12.6567312 7.12850592,12.6723947 C6.76845431,13.2039451 6.47117131,13.7752118 6.24616039,14.3773808 C6.23796576,14.3947434 6.0777152,14.8669318 6.01779196,15.0904155 C5.84524945,15.7339467 5.7535151,16.4063094 5.7535151,17.0970967 L5.7535151,17.2620148 L4.44419515,11.5637369 C4.59033274,11.0235317 4.45677163,10.4502474 4.07947716,9.97683775 L3.96367109,9.47279139 C4.51305281,9.24670591 4.94401074,8.7906058 5.12673964,8.22130367 L5.16367238,8.10619016 C5.38327712,7.42182762 5.2067511,6.68999668 4.7028951,6.19625106 C4.61258344,6.10773897 4.47885161,6.07046513 4.35137957,6.09807538 C3.95211893,6.18451671 3.59474196,6.38633702 3.31914058,6.667643 L2.98924977,5.23206925 C3.50573916,4.75637648 3.75180573,4.05279296 3.63696708,3.34464312 L3.61500091,3.20951218 C3.48769959,2.4246377 2.93848859,1.76751373 2.18168026,1.49470322 C2.0596713,1.45068611 1.92161453,1.47011948 1.81889711,1.54594147 C1.18250433,2.01558122 0.866328143,2.79488055 0.993743276,3.57938335 L1.01570944,3.71483287 C1.1321984,4.43291178 1.60162557,5.04400096 2.26015523,5.35180216 L2.32730568,5.64393985 C2.31142858,5.6353913 2.29589293,5.62710822 2.28132469,5.61940921 C1.61807174,5.26265291 0.814144276,5.25468841 0.183271493,5.59870152 C0.0702538717,5.66034671 0.00054259989,5.77312397 1.51375608e-05,5.89529933 C-0.00287182975,6.57716633 0.407371892,7.22229046 1.06886073,7.57798483 C1.1067609,7.59863942 1.14636828,7.61998427 1.18244742,7.63904596 C1.66524777,7.8988478 2.22299485,7.97371406 2.73498858,7.8625828 C2.6604402,8.33195706 2.76372669,8.80478261 3.02333716,9.19196328 C2.64046578,9.05221293 2.22145836,9.01876205 1.82003525,9.10753963 C1.69262012,9.13573394 1.59069939,9.22467081 1.55200252,9.34137721 C1.33609675,9.99266055 1.52673574,10.7214119 2.04948492,11.2430332 L2.13780483,11.3312798 C2.55903164,11.7515928 3.16179228,11.970351 3.77371498,11.9393425 L5.75340129,20.554962 L5.75340129,24.6548719 C5.75340129,24.8454888 5.91900113,25 6.12329783,25 C6.32759454,25 6.49319438,24.8454888 6.49319438,24.6548719 L6.49319438,20.5255465 C6.49330819,20.520874 6.49330819,20.5162015 6.49319438,20.5114759 L6.49319438,17.0969905 C6.49319438,16.2622583 6.63904743,15.4573663 6.90827521,14.7030755 C7.72904719,13.9530855 8.71877653,13.3700314 9.79506166,13.0002664 C10.0072685,13.8660602 10.6552134,14.621997 11.5647605,15.0345047 L11.7564239,15.121477 C12.8160921,15.6019485 14.0489288,15.5340379 14.9740685,14.9441343 C15.0821352,14.8752148 15.1431966,14.7581367 15.1344329,14.6362269 C15.0598845,13.5930373 14.3554308,12.6465897 13.2962178,12.1663837 L13.1041561,12.079146 C12.0626982,11.6069045 10.8534779,11.6644612 9.93391513,12.2268077 C9.10153409,12.4715832 8.31012621,12.8322156 7.59036444,13.2914484 C7.65563695,13.1863701 7.88383466,12.85664 7.92725483,12.7938267 C9.35425879,10.854419 11.7131175,9.55052486 14.3895751,9.46180038 C14.7746089,9.94545764 15.4055955,10.2380201 16.0880262,10.2380201 C16.0901318,10.2380201 16.0922942,10.2380201 16.0944567,10.2380201 C16.1427709,10.2378608 16.1912558,10.2362148 16.2396269,10.2331352 C16.2529432,10.2394537 16.2654627,10.2455067 16.277584,10.2512943 C16.4538254,10.3358772 16.571168,10.3862128 17.1158264,10.5178925 C17.56784,10.6272185 18.7162834,10.7524734 19.1850277,10.4129204 C19.3317344,10.3066741 19.412258,10.1589592 19.4117458,9.99701448 C19.4115182,9.93021891 19.3992263,9.86363573 19.3750407,9.79742422 C19.8806039,9.58126781 20.0006211,9.31132452 19.9999976,9.10292022 Z M15.3734999,0.871401806 C15.5414898,0.895507679 15.7556884,1.13943363 15.8778681,1.61932102 C15.6166073,1.7555139 15.3604682,1.94103354 15.1299373,2.16467657 C14.9974005,1.93583007 14.8428975,1.71489497 14.6701843,1.52263205 C14.9087391,1.06217802 15.1930473,0.845649937 15.3734999,0.871401806 Z M13.2924619,3.13007961 C13.2888199,3.11579662 13.2852347,3.10156672 13.2817634,3.08738992 C13.0966444,2.33081595 13.1994187,1.79857527 13.3732701,1.62420591 C13.4096338,1.58778162 13.4437212,1.57190573 13.490442,1.57190573 C13.5022786,1.57190573 13.514912,1.57291456 13.5285697,1.57487914 C13.8111138,1.61539187 14.2718911,2.03841277 14.6178297,2.75346517 C14.2739397,3.08595631 13.8021225,3.12944245 13.2924619,3.13007961 Z M13.6897308,4.19487956 C13.6358967,4.07827934 13.5810382,3.95955526 13.5227652,3.81571648 C14.1602392,3.79192918 14.8768711,3.65387793 15.3663296,2.98417006 C15.8608528,2.30750653 16.5680381,2.01090872 16.8872304,2.05641253 C16.954893,2.06612922 16.9907445,2.09065986 17.0194826,2.1469423 C17.1292565,2.36198367 17.0560739,2.89847209 16.6359853,3.56833925 C16.6359853,3.56833925 16.6359853,3.56833925 16.6359853,3.56839234 C16.5242196,3.74658466 16.378708,3.94490059 16.2153844,4.14157053 C16.0966761,4.28429429 15.9939018,4.39346097 15.8945419,4.49901709 C15.6399961,4.76938516 15.3996772,5.02477998 15.0326829,5.69708959 C14.9809543,5.79186708 14.922909,5.88377736 14.8606526,5.97255494 C14.9079424,5.73834567 14.9410055,5.50132229 14.9586467,5.26222814 C14.9672966,5.14520315 14.8726031,5.04378857 14.7472366,5.03571789 C14.6218132,5.0276472 14.5131774,5.1159469 14.5044706,5.23302499 C14.4781795,5.58919722 14.4162076,5.94069695 14.3196362,6.28375432 C14.2436651,6.09005779 14.1810103,5.86163606 14.1310459,5.59525024 C13.9907128,4.84653457 13.8511764,4.5445209 13.6897308,4.19487956 Z M1.54984005,7.03985042 C1.51415926,7.02094802 1.47722651,7.00108988 1.44000923,6.98086006 C1.07620175,6.78525205 0.828826324,6.46189353 0.759513402,6.10619917 C1.12417449,5.98391762 1.54841737,6.02188171 1.9142166,6.21860475 C1.93828833,6.23134794 1.9627015,6.24451591 1.98694395,6.25757768 L2.02370598,6.27743582 C2.38535098,6.4719288 2.55925927,6.80436684 2.66800885,7.16441513 C2.31085951,7.27161724 1.90272135,7.22967089 1.54984005,7.03985042 Z M2.51561147,4.69643038 C2.11020486,4.47793772 1.82293751,4.07849173 1.74719408,3.61140062 L1.72528483,3.47637587 C1.64942758,3.00944406 1.79721548,2.54856525 2.11515578,2.22786157 C2.5205624,2.44640733 2.80782974,2.84574713 2.88357318,3.31267894 L2.90553934,3.44786298 C2.98122586,3.91490099 2.83349487,4.3757267 2.51561147,4.69643038 Z M3.7547649,11.2488208 C3.35163457,11.2749443 2.9536828,11.1345568 2.67808142,10.8595162 L2.59010295,10.7716413 C2.30329086,10.4854504 2.167738,10.1087829 2.21263775,9.74979654 C2.60000479,9.73169058 2.993404,9.88354696 3.28021609,10.1697378 C3.28021609,10.1697378 3.41963863,10.3106563 3.44342582,10.3380011 C3.44581592,10.3408683 3.44826293,10.3436824 3.45076685,10.3464965 C3.68357404,10.6182982 3.79073022,10.9394798 3.7547649,11.2488208 Z M3.66194932,8.84264051 C3.45059612,8.53961801 3.39249391,8.14595954 3.51302328,7.77030084 L3.51666534,7.75899126 C3.5195107,7.75113296 3.52207152,7.74311537 3.5242909,7.73504468 L3.54984221,7.65539972 C3.67031467,7.2800596 3.95086697,6.98101935 4.30591075,6.83627792 C4.51726394,7.13919423 4.57530925,7.53290578 4.45466607,7.90882997 L4.41790404,8.0235187 C4.29743158,8.39885882 4.01699309,8.69789908 3.66194932,8.84264051 Z M12.0802825,14.5008835 L11.8882208,14.4136989 C11.3014511,14.1476316 10.8565509,13.700611 10.6289792,13.1767065 C10.8195044,13.29782 11.0272724,13.4024203 11.2658841,13.5105782 C11.7122639,13.7130357 12.1944383,13.8133883 12.6697838,13.8133883 C13.1146271,13.8133883 13.5532675,13.7250886 13.9508778,13.5506661 C14.1657592,13.8286801 14.3121244,14.145667 14.3714217,14.4805475 C13.6897308,14.8299234 12.831457,14.8414985 12.0802825,14.5008835 Z M12.7808097,12.7000049 L12.9726437,12.7871365 C13.2211573,12.8998076 13.4437781,13.0454516 13.6358967,13.2150954 C12.9608639,13.4705964 12.1631962,13.4453755 11.4648885,13.128601 C11.1307865,12.9771694 10.8739645,12.8406579 10.6412711,12.6498286 C11.2957035,12.3715491 12.0841522,12.3840799 12.7808097,12.7000049 Z M8.08744849,0.692147562 C8.4403867,0.660024097 8.8775475,1.05251443 9.21409645,1.68792188 C8.85506918,1.98882051 8.52660104,2.38635503 8.27518521,2.83757024 C7.94438388,2.48256613 7.59531536,2.18841077 7.24954745,1.96864379 C7.39283968,1.22922004 7.71795029,0.725651539 8.08744849,0.692147562 Z M6.08306447,4.62804191 C6.05495233,4.58020184 6.0276938,4.53225558 6.0014596,4.48446861 C5.45520777,3.49039339 5.43927376,2.73281058 5.59417505,2.39065586 C5.69285207,2.17264107 5.92816318,2.20736627 5.94813759,2.20736627 C6.40726457,2.20736627 7.20237142,2.65491782 7.94233523,3.54688821 C7.57346301,4.22838353 6.83719816,4.45335398 6.08306447,4.62804191 Z M8.03691493,7.54394988 C7.5852997,6.60679425 7.29490246,6.25497594 6.95869495,5.84756545 C6.8128419,5.67080675 6.66363132,5.49001271 6.48704841,5.24359122 C7.36768672,5.02228444 8.31041074,4.65713887 8.72822311,3.58665759 C8.99056513,2.91429488 9.43313211,2.38439045 9.86141541,2.07839454 C9.8804224,2.06750973 9.89806362,2.05524441 9.91422525,2.04175786 C10.1340007,1.89372444 10.3478578,1.8060088 10.5292778,1.78954884 C10.6680744,1.77707113 10.7691984,1.81530071 10.8570062,1.91379497 C11.111495,2.19934868 11.2200739,2.96802868 10.8890449,4.04169576 C10.8030582,4.3204531 10.6795127,4.63536925 10.5318956,4.95209068 C10.4241134,5.18284867 10.3261762,5.3622091 10.2314827,5.53556962 C9.98501776,5.98678483 9.77212807,6.37646105 9.53197985,7.37032388 C9.45726075,7.67929321 9.34447076,7.97689986 9.20157688,8.25215282 C9.19930059,7.76695576 9.152466,7.28186489 9.05845537,6.80149962 C9.03586323,6.68612063 8.91743942,6.60960838 8.79366635,6.63068774 C8.67000709,6.65176711 8.58806078,6.7623674 8.61059601,6.87774639 C8.72497941,7.46228726 8.76771668,8.05420856 8.73886475,8.64416528 C8.49029428,8.36731942 8.25828378,8.00334198 8.03691493,7.54394988 Z M15.0354714,9.11120329 C15.245914,8.87821525 15.5541801,8.72391643 15.897501,8.68101435 C15.8879406,8.82256998 15.8833881,8.96550612 15.8838433,9.10892014 C15.8842986,9.25222796 15.8897617,9.3952172 15.9002326,9.53671974 C15.556741,9.49567604 15.2474505,9.34302321 15.0354714,9.11120329 Z M18.6986991,9.28865225 C18.5670728,9.32120049 18.465209,9.41857972 18.4336256,9.54213559 C18.4020421,9.66569147 18.4456899,9.79551274 18.547383,9.87998949 C18.5613252,9.89156456 18.5738448,9.90250246 18.5849417,9.91269702 C18.3091127,9.9619707 17.7531297,9.95899728 17.3015714,9.8497775 C16.8608824,9.74315946 16.7602705,9.70551394 16.6531143,9.65517833 C16.6341073,9.47518074 16.6241486,9.29141328 16.6235795,9.10679627 C16.6230104,8.92201998 16.6317741,8.73819942 16.649643,8.55814873 C16.7564008,8.50728215 16.8569558,8.46899948 17.2969619,8.35993899 C17.7477805,8.24817057 18.3039341,8.24211755 18.5798201,8.29001072 C18.5609269,8.30753261 18.5382209,8.32701907 18.5107917,8.34852321 C18.4023835,8.43363712 18.3555489,8.56903354 18.3903192,8.69715573 C18.4249757,8.825331 18.5351479,8.92377217 18.6738876,8.95053287 C18.9397578,9.00193042 19.1018294,9.06331013 19.1911168,9.1095042 C19.1062682,9.15893717 18.9523912,9.22599822 18.6986991,9.28865225 Z" id="XMLID_373_" fill="#000000" fill-rule="nonzero"></path>
            </g>
        </g>
    </g>
</svg>