<?xml version="1.0" encoding="UTF-8"?>
<svg width="22px" height="17px" viewBox="0 0 22 17" version="1.1" xmlns="http://www.w3.org/2000/svg" xmlns:xlink="http://www.w3.org/1999/xlink">
    <title>􀙘</title>
    <g id="Hifi-FIX-BGT" stroke="none" stroke-width="1" fill="none" fill-rule="evenodd">
        <g id="Track-Emergency-info" transform="translate(-245.000000, -410.000000)" fill="#294337" fill-rule="nonzero">
            <path d="M247.886719,426.959961 C248.545898,426.959961 249.055664,426.458984 249.055664,425.808594 L249.055664,424.358398 C250.97168,424.472656 253.546875,424.542969 255.638672,424.542969 C257.730469,424.542969 260.305664,424.472656 262.230469,424.358398 L262.230469,425.808594 C262.230469,426.458984 262.731445,426.959961 263.390625,426.959961 L264.427734,426.959961 C265.086914,426.959961 265.587891,426.458984 265.587891,425.808594 L265.587891,423.584961 C265.886719,423.268555 266.036133,422.829102 266.036133,422.28418 L266.036133,420.737305 C266.036133,419.260742 265.737305,418.425781 264.928711,417.371094 L264.181641,416.413086 C263.865234,414.831055 263.276367,413.169922 262.977539,412.519531 C262.50293,411.526367 261.597656,410.9375 260.428711,410.779297 C259.865447,410.712041 258.079888,410.660869 255.933515,410.656546 L255.638672,410.65625 C253.371094,410.65625 251.446289,410.717773 250.857422,410.779297 C249.688477,410.919922 248.774414,411.526367 248.308594,412.519531 C248.000977,413.169922 247.420898,414.831055 247.095703,416.413086 L246.357422,417.371094 C245.540039,418.425781 245.241211,419.260742 245.241211,420.737305 L245.241211,422.28418 C245.241211,422.829102 245.399414,423.268555 245.689453,423.584961 L245.689453,425.808594 C245.689453,426.458984 246.199219,426.959961 246.858398,426.959961 L247.886719,426.959961 Z M255.961957,423.391069 L255.638672,423.391602 C254.974609,423.391602 254.26888,423.385091 253.557268,423.373035 L252.845019,423.359166 C250.591749,423.309619 248.399089,423.207682 247.40332,423.083984 C246.65625,422.987305 246.392578,422.600586 246.392578,421.932617 L246.392578,420.737305 C246.392578,419.533203 246.585938,418.970703 247.271484,418.083008 L248.167969,416.905273 C248.405273,415.630859 248.976562,413.84668 249.354492,413.046875 C249.635742,412.431641 250.189453,412.053711 250.989258,411.957031 C251.551758,411.895508 253.335938,411.807617 255.638672,411.807617 C257.950195,411.807617 259.760742,411.895508 260.270508,411.957031 C261.09668,412.0625 261.641602,412.44043 261.931641,413.046875 C262.30957,413.84668 262.880859,415.630859 263.109375,416.905273 L264.014648,418.083008 C264.691406,418.970703 264.884766,419.533203 264.884766,420.737305 L264.884766,421.932617 C264.884766,422.600586 264.621094,422.996094 263.874023,423.083984 C262.517997,423.245013 258.898192,423.381523 255.961957,423.391069 Z M261.914062,416.193359 C261.703125,415.25293 261.298828,414.040039 261.017578,413.556641 C260.789062,413.161133 260.53418,412.994141 260.077148,412.932617 C259.47447,412.840541 258.138373,412.788325 255.970157,412.783561 L255.638672,412.783203 C253.283203,412.783203 251.841797,412.835938 251.200195,412.932617 C250.743164,412.994141 250.488281,413.161133 250.259766,413.556641 C249.978516,414.040039 249.583008,415.25293 249.363281,416.193359 C249.292969,416.500977 249.424805,416.624023 249.758789,416.597656 C251.165039,416.509766 252.834961,416.421875 255.638672,416.421875 C258.451172,416.421875 260.121094,416.509766 261.527344,416.597656 C261.852539,416.624023 261.984375,416.500977 261.914062,416.193359 Z M249.301758,422.169922 C250.101562,422.169922 250.716797,421.563477 250.716797,420.754883 C250.716797,419.955078 250.101562,419.348633 249.301758,419.348633 C248.501953,419.348633 247.886719,419.955078 247.886719,420.754883 C247.886719,421.563477 248.501953,422.169922 249.301758,422.169922 Z M261.975586,422.169922 C262.78418,422.169922 263.390625,421.563477 263.390625,420.754883 C263.390625,419.955078 262.78418,419.348633 261.975586,419.348633 C261.175781,419.348633 260.569336,419.955078 260.569336,420.754883 C260.569336,421.563477 261.175781,422.169922 261.975586,422.169922 Z M257.967773,421.827148 C258.56543,421.827148 258.978516,421.405273 258.978516,420.807617 C258.978516,420.209961 258.56543,419.788086 257.967773,419.788086 L253.318359,419.788086 C252.711914,419.788086 252.298828,420.209961 252.298828,420.807617 C252.298828,421.405273 252.711914,421.827148 253.318359,421.827148 L257.967773,421.827148 Z" id="􀙘"></path>
        </g>
    </g>
</svg>