<?xml version="1.0" encoding="UTF-8"?>
<svg width="18px" height="18px" viewBox="0 0 18 18" version="1.1" xmlns="http://www.w3.org/2000/svg" xmlns:xlink="http://www.w3.org/1999/xlink">
    <title>􀈎</title>
    <g id="Hifi-FIX-BGT" stroke="none" stroke-width="1" fill="none" fill-rule="evenodd">
        <g id="Track-Emergency-info" transform="translate(-147.000000, -409.000000)" fill="#294337" fill-rule="nonzero">
            <path d="M163.678711,411.447266 L164.311523,410.796875 C164.610352,410.480469 164.610352,410.058594 164.311523,409.768555 L164.109375,409.557617 C163.836914,409.285156 163.40625,409.320313 163.116211,409.601563 L162.474609,410.234375 L163.678711,411.447266 Z M153.105469,421.036133 L154.819336,420.289063 L163.02832,412.088867 L161.824219,410.902344 L153.624023,419.102539 L152.833008,420.754883 C152.762695,420.904297 152.938477,421.106445 153.105469,421.036133 Z M160.224609,426.731445 C161.806641,426.731445 162.720703,425.817383 162.720703,424.006836 L162.720703,414.611328 L161.305664,416.026367 L161.305664,423.936523 C161.305664,424.850586 160.813477,425.316406 160.207031,425.316406 L149.932617,425.316406 C149.053711,425.316406 148.561523,424.850586 148.561523,423.936523 L148.561523,413.960938 C148.561523,413.046875 149.053711,412.572266 149.932617,412.572266 L157.939453,412.572266 L159.354492,411.157227 L149.90625,411.157227 C148.078125,411.157227 147.146484,412.071289 147.146484,413.881836 L147.146484,424.006836 C147.146484,425.826172 148.078125,426.731445 149.90625,426.731445 L160.224609,426.731445 Z" id="􀈎"></path>
        </g>
    </g>
</svg>