<?xml version="1.0" encoding="UTF-8"?>
<svg width="54px" height="38px" viewBox="0 0 54 38" version="1.1" xmlns="http://www.w3.org/2000/svg" xmlns:xlink="http://www.w3.org/1999/xlink">
    <title>􀇔</title>
    <g id="Visual-Guide" stroke="none" stroke-width="1" fill="none" fill-rule="evenodd">
        <g id="Symbols-Copy" transform="translate(-392.000000, -196.000000)" fill="#FFFFFF" fill-rule="nonzero">
            <path d="M426.898438,203.134766 C427.917969,203.134766 428.744141,202.273438 428.744141,201.271484 L428.744141,197.949219 C428.744141,196.929688 427.917969,196.085938 426.898438,196.085938 C425.896484,196.085938 425.070312,196.929688 425.070312,197.949219 L425.070312,201.271484 C425.070312,202.273438 425.896484,203.134766 426.898438,203.134766 Z M418.601562,206.580078 C419.304688,205.876953 419.287109,204.716797 418.583984,203.978516 L416.228516,201.587891 C415.525391,200.867188 414.330078,200.884766 413.626953,201.587891 C412.90625,202.308594 412.941406,203.486328 413.644531,204.189453 L415.982422,206.5625 C416.720703,207.283203 417.898438,207.283203 418.601562,206.580078 Z M437.832031,206.5625 L440.1875,204.207031 C440.908203,203.503906 440.908203,202.308594 440.1875,201.605469 C439.484375,200.902344 438.306641,200.902344 437.585938,201.623047 L435.212891,203.978516 C434.492188,204.681641 434.509766,205.876953 435.212891,206.597656 C435.916016,207.300781 437.111328,207.283203 437.832031,206.5625 Z M419.65625,233.966797 C425.140625,233.966797 429.394531,229.800781 429.394531,224.439453 C429.394531,224.105469 429.376953,223.771484 429.341797,223.455078 C433.138672,222.435547 435.898438,219.025391 435.898438,214.876953 C435.898438,209.884766 431.908203,205.894531 426.933594,205.894531 C422.697266,205.894531 419.199219,208.724609 418.214844,212.609375 C416.017578,210.095703 412.923828,208.689453 409.232422,208.689453 C403.185547,208.689453 398.158203,213.119141 397.296875,219.130859 C394.185547,220.132812 392.146484,222.857422 392.146484,226.267578 C392.146484,230.732422 395.556641,233.966797 400.390625,233.966797 L419.65625,233.966797 Z M428.304688,219.921875 C426.986328,217.443359 424.595703,215.667969 421.660156,215.070312 C421.642578,215 421.642578,214.912109 421.642578,214.841797 C421.642578,211.90625 423.980469,209.568359 426.916016,209.568359 C429.851562,209.568359 432.189453,211.90625 432.189453,214.841797 C432.189453,217.285156 430.537109,219.341797 428.304688,219.921875 Z M419.585938,229.853516 L400.460938,229.853516 C397.701172,229.853516 396.277344,228.359375 396.277344,226.320312 C396.277344,224.544922 397.384766,223.121094 399.845703,222.488281 C400.8125,222.242188 401.076172,221.802734 401.216797,220.835938 C401.849609,215.791016 405.154297,212.802734 409.232422,212.802734 C412.361328,212.802734 414.892578,214.595703 416.5625,217.777344 C417.001953,218.585938 417.441406,218.867188 418.425781,218.867188 C423.013672,218.867188 425.263672,221.380859 425.263672,224.509766 C425.263672,227.498047 422.943359,229.853516 419.585938,229.853516 Z M443.808594,216.6875 C444.810547,216.6875 445.654297,215.878906 445.654297,214.876953 C445.654297,213.857422 444.810547,213.03125 443.808594,213.03125 L440.46875,213.03125 C439.466797,213.03125 438.623047,213.857422 438.623047,214.876953 C438.623047,215.878906 439.466797,216.6875 440.46875,216.6875 L443.808594,216.6875 Z M440.1875,228.148438 C440.890625,227.445312 440.873047,226.285156 440.152344,225.546875 L437.814453,223.173828 C437.111328,222.470703 435.898438,222.470703 435.195312,223.173828 C434.492188,223.894531 434.509766,225.072266 435.212891,225.775391 L437.585938,228.148438 C438.306641,228.869141 439.466797,228.869141 440.1875,228.148438 Z" id="􀇔"></path>
        </g>
    </g>
</svg>