<?xml version="1.0" encoding="UTF-8"?>
<svg width="23px" height="23px" viewBox="0 0 23 23" version="1.1" xmlns="http://www.w3.org/2000/svg" xmlns:xlink="http://www.w3.org/1999/xlink">
    <title>black-panther</title>
    <defs>
        <filter color-interpolation-filters="auto" id="filter-1">
            <feColorMatrix in="SourceGraphic" type="matrix" values="0 0 0 0 0.160784 0 0 0 0 0.262745 0 0 0 0 0.215686 0 0 0 1.000000 0"></feColorMatrix>
        </filter>
    </defs>
    <g id="Hifi-FIX-BGT" stroke="none" stroke-width="1" fill="none" fill-rule="evenodd">
        <g id="black-panther" transform="translate(-43.000000, -507.000000)" filter="url(#filter-1)">
            <g transform="translate(43.000000, 507.000000)">
                <path d="M14.3076923,17.68 C13.4169692,17.68 12.6923077,16.989156 12.6923077,16.14 L12.6923077,14.956444 C13.8853385,14.662612 14.7692308,13.627864 14.7692308,12.4 L14.7692308,11.74 L14.7692308,8.66 C14.7692308,8.295504 14.4592615,8 14.0769231,8 C13.6945846,8 13.3846154,8.295504 13.3846154,8.66 L13.3846154,11.08 L10.6153846,11.08 L10.6153846,8.66 C10.6153846,8.295504 10.3054154,8 9.92307692,8 C9.54073846,8 9.23076923,8.295504 9.23076923,8.66 L9.23076923,11.74 L9.23076923,12.4 C9.23076923,13.627864 10.1146615,14.662656 11.3076923,14.956444 L11.3076923,16.14 C11.3076923,16.989156 10.5830308,17.68 9.69230769,17.68 C9.30996923,17.68 9,17.975504 9,18.34 C9,18.704496 9.30996923,19 9.69230769,19 C10.6191692,19 11.4492462,18.597136 12,17.965516 C12.5507538,18.597092 13.3808308,19 14.3076923,19 C14.6900308,19 15,18.704496 15,18.34 C15,17.975504 14.6900308,17.68 14.3076923,17.68 Z M12,13.72 C11.2365231,13.72 10.6153846,13.127848 10.6153846,12.4 L13.3846154,12.4 C13.3846154,13.127848 12.7634769,13.72 12,13.72 Z" id="Shape" fill="#000000" fill-rule="nonzero"></path>
                <path d="M22.3737642,13.1073373 C22.7551341,13.0427399 23.0098171,12.6932039 22.9425935,12.3267325 C22.8753699,11.960306 22.5117642,11.7156173 22.1302541,11.7801249 L21.550813,11.8783238 L21.550813,8.39127476 C21.550813,7.73249763 21.4424045,7.08957788 21.2315244,6.47936114 C22.7889329,4.90907726 23,2.57409082 23,0.673901779 C23,0.49340628 22.924689,0.320547476 22.7908963,0.193868206 C22.6571037,0.0671889364 22.4778252,-0.00270927048 22.2882622,8.04114713e-05 L20.5104837,0.0257261826 C19.2237927,0.0441890123 17.9610366,0.478986406 16.9548333,1.24988816 L15.7107764,2.20308228 L14.9514959,1.98849119 C13.7711098,1.65485753 12.4979756,1.86068888 11.5,2.52121795 C10.5019776,1.86068888 9.22875,1.65490245 8.04845732,1.98849119 L7.28913008,2.20308228 L6.04511992,1.24984324 C5.03896341,0.478986406 3.77620732,0.0441890123 2.48946951,0.0257261826 L0.711737805,8.04114713e-05 C0.52278252,-0.00234989667 0.342896341,0.0672338582 0.209150407,0.193868206 C0.0753109756,0.320547476 0,0.49340628 0,0.673901779 C0,2.57409082 0.211113821,4.90907726 1.76847561,6.47936114 C1.55759553,7.08957788 1.44918699,7.73245271 1.44918699,8.39127476 L1.44918699,11.8783238 L0.869699187,11.7801249 C0.48804878,11.7155275 0.124630081,11.9602161 0.0574065041,12.3267325 C-0.00981707317,12.6932039 0.244819106,13.042695 0.626189024,13.1073373 L1.59789228,13.2719755 C1.8193374,14.2365348 2.28195528,15.1315553 2.93974593,15.8802657 L0.626142276,16.2722976 C0.24472561,16.336895 -0.00991056911,16.686431 0.0573597561,17.0529024 C0.117337398,17.3797978 0.413205285,17.609842 0.747079268,17.609842 C0.787469512,17.609842 0.82846748,17.6064729 0.869652439,17.59951 L4.27538211,17.0224455 C4.4114187,17.1090546 4.55110163,17.191486 4.69517886,17.2684369 L5.65650407,17.7816227 L5.65650407,19.1144054 C5.65650407,20.0814354 6.03376016,21.0042175 6.71875813,21.7128128 C7.40342886,22.4211386 8.33324593,22.8508149 9.3368313,22.9227796 C10.0545061,22.9742599 10.7772764,23 11.5,23 C12.2227236,23 12.9454939,22.9742599 13.663122,22.9227346 C14.6667073,22.85077 15.5964776,22.4210937 16.2812419,21.7127679 C16.9662398,21.0042175 17.3434959,20.0814354 17.3434959,19.1144054 L17.3434959,17.7816227 L18.3047276,17.2684369 C18.4488049,17.1915309 18.5884878,17.1090546 18.7245244,17.0224455 L22.1303008,17.59951 C22.1714858,17.6064729 22.212437,17.609842 22.252874,17.609842 C22.586748,17.609842 22.8826626,17.3797978 22.9426402,17.0529024 C23.0098638,16.686431 22.7551809,16.33694 22.373811,16.2722976 L20.0602073,15.8802657 C20.717998,15.1315553 21.1806626,14.2365348 21.4021077,13.2719755 L22.3737642,13.1073373 Z M2.43304472,5.13979525 C1.80587398,4.28327268 1.48092886,3.06787044 1.41506098,1.35805968 L2.46847967,1.3731983 C3.44640041,1.3872588 4.40608943,1.71770302 5.17079268,2.30361711 L5.65542886,2.6749401 C4.47621138,3.07429425 3.46168699,3.78899892 2.7070813,4.75805041 C2.61017276,4.88257344 2.51910772,5.01001638 2.43304472,5.13979525 L2.43304472,5.13979525 Z M20.148374,11.967179 C20.148374,12.0170421 20.1473923,12.0667704 20.1457561,12.116364 L16.1453455,12.794188 C15.7639756,12.8587854 15.5092927,13.2083214 15.5765163,13.5747928 C15.6364939,13.9016882 15.9323618,14.1317324 16.2662825,14.1317324 C16.3066728,14.1317324 16.3476707,14.1283633 16.3888557,14.1214004 L19.8699898,13.5315781 C19.5766931,14.332263 19.0617175,15.0472372 18.3758313,15.5949229 L16.3888089,15.2582345 C16.0077195,15.1937269 15.6437398,15.4383257 15.5764695,15.8048421 C15.5092459,16.1713135 15.7639289,16.5208046 16.1452988,16.5854469 L16.5635061,16.6562885 L16.301624,16.7960849 C16.0790102,16.9149478 15.9409634,17.14041 15.9409634,17.3850986 L15.9409634,19.1143605 C15.9409634,20.4005144 14.8945102,21.4830382 13.558687,21.5788113 C12.1925244,21.6767407 10.8071951,21.6767407 9.44112602,21.5788113 C8.1052561,21.4829933 7.05884959,20.4005144 7.05884959,19.1143605 L7.05884959,17.3850986 C7.05884959,17.14041 6.92080285,16.9149029 6.69818902,16.7960849 L6.43635366,16.6562885 L6.85460772,16.585402 C7.23597764,16.5208046 7.49061382,16.1712686 7.42339024,15.8047972 C7.35616667,15.4383257 6.99237398,15.193682 6.61109756,15.2581896 L4.62412195,15.5948779 C3.93828252,15.0471923 3.42330691,14.332263 3.13001016,13.5315332 L6.61114431,14.1213555 C6.65232927,14.1283183 6.69328049,14.1316875 6.73371748,14.1316875 C7.06759146,14.1316875 7.36345935,13.9016433 7.42343699,13.5747479 C7.49066057,13.2082764 7.23602439,12.8587854 6.85465447,12.794143 L2.8542439,12.1163191 C2.85260772,12.0666806 2.85162602,12.0169972 2.85162602,11.9671341 L2.85162602,8.39118491 C2.85162602,6.31319567 4.30053252,4.45244791 6.37516057,3.86612953 L8.44422561,3.28133849 C8.68927846,3.21206919 8.94026829,3.17832071 9.18980894,3.17832071 C9.86031504,3.17832071 10.5196016,3.42207826 11.0184024,3.87502403 C11.2886992,4.12043142 11.7113943,4.12047635 11.9816443,3.87497911 C12.6660346,3.25348702 13.6524167,3.02591355 14.5557744,3.28133849 L16.6248862,3.86612953 C18.6994675,4.45253775 20.148374,6.31328552 20.148374,8.39127476 L20.148374,11.967179 Z M20.292872,4.75809534 C19.538313,3.78904385 18.5237419,3.07429425 17.3445711,2.67498502 L17.8292073,2.30366203 C18.5938638,1.71774794 19.5535996,1.38734864 20.5315203,1.37324322 L21.584939,1.3581046 C21.5190711,3.06791537 21.1941728,4.28331761 20.567002,5.13984017 C20.4808923,5.01001638 20.3897805,4.88257344 20.292872,4.75809534 L20.292872,4.75809534 Z" id="Shape" fill="#000000" fill-rule="nonzero"></path>
                <path d="M16.5,8 C16.2238667,8 16,8.26864 16,8.6 L16,9.4 C16,9.73136 16.2238667,10 16.5,10 C16.7761333,10 17,9.73136 17,9.4 L17,8.6 C17,8.26864 16.7761333,8 16.5,8 Z" id="Path" fill="#000000" fill-rule="nonzero"></path>
                <path d="M6.5,8 C6.22386667,8 6,8.26864 6,8.6 L6,9.4 C6,9.73136 6.22386667,10 6.5,10 C6.77613333,10 7,9.73136 7,9.4 L7,8.6 C7,8.26864 6.77613333,8 6.5,8 Z" id="Path" fill="#000000" fill-rule="nonzero"></path>
            </g>
        </g>
    </g>
</svg>