<?xml version="1.0" encoding="UTF-8"?>
<svg width="30px" height="30px" viewBox="0 0 30 30" version="1.1" xmlns="http://www.w3.org/2000/svg" xmlns:xlink="http://www.w3.org/1999/xlink">
    <title>terrain copy</title>
    <defs>
        <filter color-interpolation-filters="auto" id="filter-1">
            <feColorMatrix in="SourceGraphic" type="matrix" values="0 0 0 0 1.000000 0 0 0 0 1.000000 0 0 0 0 1.000000 0 0 0 1.000000 0"></feColorMatrix>
        </filter>
    </defs>
    <g id="Hifi-FIX-BGT" stroke="none" stroke-width="1" fill="none" fill-rule="evenodd">
        <g id="terrain-copy" transform="translate(-33.000000, -226.000000)" filter="url(#filter-1)">
            <g transform="translate(33.000000, 226.000000)">
                <path d="M27.2497277,5.50011258 C25.0700305,5.50011258 22.2789138,5.63241676 20.0209498,6.66389722 C18.6052817,7.33350405 17.3634541,8.23232876 16.3680581,9.30793015 C15.9189177,9.78915879 15.4991361,10.2890788 15.1103248,10.8057565 C14.7114938,11.3411841 14.2739147,11.8556939 13.8000401,12.3465319 C11.4177041,14.7147065 7.83719339,15.8660693 2.85411739,15.8660693 C1.32970267,15.8823583 0.104060906,16.9204012 0.104060906,18.1952792 C0.104060906,19.4701572 1.3296326,20.5082001 2.85411739,20.5244891 C3.12325128,20.5244891 3.40387644,20.5227899 3.6914384,20.5192743 L3.6914384,28.2805143 C3.68632338,29.2243975 4.59588522,29.9936133 5.72462197,30 L24.3792232,30 C25.5079599,29.9936133 26.4175217,29.2243975 26.4124067,28.2805143 L26.4124067,10.1395481 L26.4199741,10.1397825 C27.1720916,10.2329462 27.9403249,10.131345 28.6213226,9.84851403 C29.4737084,9.42523439 29.9972617,8.65847949 29.9999624,7.82949826 C30.0078421,6.55174921 28.7775758,5.50978051 27.2497277,5.50011258 Z M25.2165442,28.2805143 C25.2223599,28.6723879 24.8477726,28.9942421 24.3792232,28.9999843 L19.2658894,28.9999843 C19.9515818,28.5963335 20.668735,28.2312372 21.4124442,27.907215 C22.6003189,27.4084669 23.8918252,27.105304 25.2165442,27.014191 L25.2165442,28.2805143 Z M25.2165442,26.0113628 C23.7056527,26.1039992 22.2313371,26.4442518 20.8775397,27.0127262 C20.0786864,27.3604202 19.3083511,27.7521765 18.5717188,28.1853585 C18.3189109,28.3276821 18.0654724,28.4702402 17.8067787,28.6101615 C17.5380653,28.7552977 17.2734158,28.8840863 17.0152126,29.0000429 L5.72462197,29.0000429 C5.25607255,28.9942421 4.88148526,28.6723879 4.88723415,28.2805729 L4.88723415,27.4907322 C6.91642055,27.4713377 8.94210677,27.3454202 10.9523078,27.1136242 C13.6120457,26.8561643 16.1728466,26.1174757 18.456666,24.9488278 C18.7171113,24.8075002 18.9722315,24.6641804 19.2274217,24.5206263 C19.9257264,24.1095927 20.6554219,23.7371136 21.4118136,23.40565 C22.600459,22.9082496 23.8918953,22.6057312 25.2165442,22.5143839 L25.2165442,26.0113628 Z M25.2165442,21.5113799 C23.7055826,21.6044264 22.2311269,21.9440931 20.8763485,22.5112784 C20.0744823,22.8620193 19.3007136,23.2560022 18.5600173,23.6907076 C18.3107129,23.8310976 18.0613383,23.9711948 17.8067787,24.1091825 C15.6668805,25.1987292 13.2692696,25.8862656 10.7800789,26.1240968 C8.82691383,26.3490959 6.85875401,26.4714978 4.88730096,26.4905993 L4.88730096,23.9853744 C6.94423783,23.9533237 8.99234603,23.7505901 11.0013559,23.3802205 C13.8756442,22.8761989 16.5064437,21.6702855 18.5605779,19.915175 C18.8215838,19.6902931 19.076774,19.4618369 19.3318942,19.2332635 C20.0072163,18.5978167 20.7373322,18.0046159 21.516286,17.4583484 C22.5778969,16.7248746 23.8560201,16.2439976 25.2165442,16.0661076 L25.2165442,21.5113799 L25.2165442,21.5113799 Z M25.2165442,15.0582989 C23.5826121,15.2380639 22.0420815,15.7986867 20.7712455,16.6761248 C19.9464668,17.2529781 19.1732586,17.8794601 18.4577871,18.5505904 C18.207852,18.7747106 17.957987,18.9983621 17.7022362,19.2185566 C15.8067377,20.8343903 13.3806789,21.9436829 10.7309608,22.4060445 C8.81058782,22.7595392 6.85321858,22.9534252 4.88723089,22.9848313 L4.88723089,20.4897431 C6.96925235,20.4400558 9.03571856,20.1731037 11.0387025,19.6951563 C14.0908953,18.9343194 16.7543468,17.3472551 18.6108171,15.1832203 C18.8712625,14.8912488 19.1258221,14.5948241 19.3798211,14.2982237 C20.0437922,13.4817229 20.7781823,12.7068821 21.5770356,11.9798536 C22.5367666,11.0767516 23.8087238,10.4456407 25.2165442,10.1740011 L25.2165442,15.0582989 Z M28.012846,8.98765793 C27.5308434,9.15910259 27.0004233,9.2123641 26.4835965,9.14123156 C26.2768939,9.13197378 26.0713823,9.12318476 25.8693042,9.12318476 C25.8465319,9.12341913 25.823199,9.12464959 25.8015478,9.12341913 L25.7052033,9.12535272 C23.5791787,9.18224703 21.8193331,10.3311489 20.7175028,11.284993 C19.8780096,12.0470018 19.1061328,12.8593424 18.4081784,13.7153939 C18.1582434,14.0068967 17.9083784,14.2983995 17.651997,14.5855078 C15.9464547,16.5761057 13.4987446,18.0367251 10.6930536,18.7380896 C8.13932964,19.3161148 5.49879054,19.5810161 2.85411739,19.5244734 C1.99017027,19.508243 1.2998534,18.9179132 1.2998534,18.1952792 C1.2998534,17.4726452 1.9901002,16.8822569 2.85411739,16.866085 C8.21206095,16.866085 12.0914848,15.5982969 14.7149972,12.9903576 C15.2199123,12.4685236 15.6862896,11.9214358 16.1116767,11.3521997 C16.4787666,10.8636469 16.8749351,10.3907971 17.2987806,9.93546683 C18.1965009,8.9625213 19.3167593,8.1487158 20.594322,7.54145248 C22.6146129,6.61860442 25.2124101,6.5001869 27.2496577,6.5001869 C28.1173885,6.5092689 28.8126802,7.10387602 28.8040723,7.82955686 C28.8025203,8.30504333 28.5020657,8.74496354 28.012846,8.98765793 Z" id="Shape" fill="#000000" fill-rule="nonzero"></path>
                <path d="M0.600287466,11.8750925 L0.600287466,11.8750925 L0.604912,11.8750925 C5.36488925,11.8426276 9.00846184,10.8709125 11.4352213,8.98619309 C12.4049722,8.17754382 13.2659063,7.28258628 14.0026788,6.31725791 C14.2499512,6.01743483 14.5056319,5.71397895 14.7656569,5.41462462 L16.5269038,6.85731445 C16.6388035,6.94883754 16.7890308,7.00010688 16.9455643,7.00010688 C16.99216,7.00016547 17.0386156,6.99559518 17.08395,6.98645459 C17.283856,6.94684536 17.4453644,6.82397474 17.5113691,6.66126051 L19.9527029,0.661283299 C20.0259247,0.481987105 19.9715513,0.283472234 19.8123553,0.148648527 C19.6531592,0.0138248203 19.4165371,-0.0341046851 19.201216,0.02478181 L11.8766542,2.02475468 C11.6780794,2.07907088 11.5278521,2.21612114 11.4802054,2.38621815 C11.4326288,2.55631516 11.4945695,2.73484964 11.6436757,2.85725152 L13.9031111,4.70810387 C13.5981721,5.05439161 13.3021319,5.40524966 13.0182135,5.74966241 C12.3306994,6.6550496 11.526731,7.49475344 10.6206726,8.253774 C8.42051534,9.96300578 5.04726781,10.8448384 0.595592863,10.8750726 C0.265359062,10.8761273 -0.0012523552,11.1008921 4.42504827e-06,11.3770434 C0.00127011813,11.6531947 0.270053665,11.8762016 0.600287466,11.8750925 Z M13.1846266,2.71961533 L18.4356454,1.28577311 L16.6856795,5.58700678 L13.1846266,2.71961533 Z" id="Shape" fill="#000000" fill-rule="nonzero"></path>
            </g>
        </g>
    </g>
</svg>