<?xml version="1.0" encoding="UTF-8"?>
<svg width="19px" height="19px" viewBox="0 0 19 19" version="1.1" xmlns="http://www.w3.org/2000/svg" xmlns:xlink="http://www.w3.org/1999/xlink">
    <title>􀀰</title>
    <g id="Hifi-FIX-BGT" stroke="none" stroke-width="1" fill="none" fill-rule="evenodd">
        <g id="Track-Emergency-info" transform="translate(-344.000000, -409.000000)" fill="#294337" fill-rule="nonzero">
            <path d="M353.829,427.619141 C358.733297,427.619141 362.793844,423.549805 362.793844,418.654297 C362.793844,413.75 358.724508,409.689453 353.820211,409.689453 C348.924703,409.689453 344.864156,413.75 344.864156,418.654297 C344.864156,423.549805 348.933492,427.619141 353.829,427.619141 Z M353.829,426.125 C349.680563,426.125 346.367086,422.802734 346.367086,418.654297 C346.367086,414.505859 349.671773,411.183594 353.820211,411.183594 C357.968648,411.183594 361.290914,414.505859 361.29972,418.654297 C361.308492,422.802734 357.977438,426.125 353.829,426.125 Z M356.158102,422.767578 C356.623922,422.767578 356.92275,422.530273 357.037008,422.073242 L358.777242,415.402344 C358.812398,415.305664 358.821188,415.226562 358.821188,415.138672 C358.821188,414.751953 358.548727,414.479492 358.14443,414.479492 C357.731344,414.479492 357.537984,414.672852 357.423727,415.173828 L356.114156,420.763672 L356.052633,420.763672 L354.57607,415.068359 C354.470602,414.681641 354.224508,414.488281 353.811422,414.488281 C353.398336,414.488281 353.134664,414.681641 353.037984,415.068359 L351.570211,420.763672 L351.508688,420.763672 L350.199117,415.173828 C350.084859,414.672852 349.900289,414.479492 349.487203,414.479492 C349.074117,414.479492 348.810445,414.751953 348.810445,415.138672 C348.810445,415.226562 348.819234,415.305664 348.845602,415.402344 L350.585836,422.073242 C350.700094,422.530273 350.998922,422.767578 351.455953,422.767578 C351.930563,422.767578 352.246969,422.539062 352.352438,422.099609 L353.776266,416.544922 L353.837789,416.544922 L355.270406,422.099609 C355.375875,422.539062 355.692281,422.767578 356.158102,422.767578 Z" id="􀀰"></path>
        </g>
    </g>
</svg>