<?xml version="1.0" encoding="UTF-8"?>
<svg width="24px" height="24px" viewBox="0 0 24 24" version="1.1" xmlns="http://www.w3.org/2000/svg" xmlns:xlink="http://www.w3.org/1999/xlink">
    <title>toilet</title>
    <defs>
        <filter color-interpolation-filters="auto" id="filter-1">
            <feColorMatrix in="SourceGraphic" type="matrix" values="0 0 0 0 0.160784 0 0 0 0 0.262745 0 0 0 0 0.215686 0 0 0 1.000000 0"></feColorMatrix>
        </filter>
    </defs>
    <g id="Hifi-FIX-BGT" stroke="none" stroke-width="1" fill="none" fill-rule="evenodd">
        <g id="toilet" transform="translate(-143.000000, -406.000000)" filter="url(#filter-1)">
            <g transform="translate(144.000000, 407.000000)">
                <path d="M21.9373881,9.9015241 C21.7822846,9.4606266 21.3655246,9.16586421 20.8981518,9.1665517 L8.06593902,9.1665517 C7.86344521,9.1665517 7.6993191,9.33069053 7.6993191,9.53320002 L7.6993191,10.6331879 L6.96603629,10.6331879 L6.96603629,5.49993962 L7.33265621,5.49993962 C7.94009468,5.49993962 8.43255894,5.00748018 8.43255894,4.39995169 C8.43255894,3.79242321 7.94013764,3.29996377 7.33265621,3.29996377 L6.96603629,3.29996377 L6.96603629,2.19997585 L7.33265621,2.19997585 C7.53515002,2.19997585 7.69927613,2.03583702 7.69927613,1.83332753 L7.69927613,0.366648318 C7.69927613,0.164138823 7.53515002,0 7.33265621,0 L0.366619921,0 C0.16412611,0 0,0.164138823 0,0.366648318 L0,1.83328456 C0,2.03579406 0.16412611,2.19993288 0.366619921,2.19993288 L0.733239842,2.19993288 L0.733239842,10.9998363 C0.733239842,11.2023458 0.897365952,11.3664846 1.09985976,11.3664846 L1.46647968,11.3664846 C1.58381696,13.7278063 2.82301206,14.7104479 3.92291479,15.5794383 C5.31613923,16.6794263 6.6286755,17.7170672 5.86239561,21.5597203 C5.82179373,21.7581049 5.94970039,21.9518488 6.14806957,21.9924539 C6.17591085,21.9981686 6.20426772,22.0005749 6.23266755,21.999885 L17.9649776,21.999885 C18.1674715,21.999885 18.3315976,21.8354907 18.3315546,21.6329812 C18.3315546,21.5671968 18.313853,21.5026155 18.2802974,21.4460263 C17.2317378,19.7006978 17.2317378,18.2817133 17.2317378,16.1330846 C19.4828864,15.399745 21.1070474,13.5187656 21.2647288,11.3041376 C21.8378383,11.1026164 22.1389366,10.474592 21.9373881,9.9015241 Z M7.33269918,4.03326041 C7.53519299,4.03326041 7.6993191,4.19739923 7.6993191,4.39990872 C7.6993191,4.60241822 7.53519299,4.76655704 7.33269918,4.76655704 L6.96607926,4.76655704 L6.96607926,4.03326041 L7.33269918,4.03326041 Z M0.733282807,1.46663624 L0.733282807,0.733296637 L6.96607926,0.733296637 L6.96607926,1.46663624 L0.733282807,1.46663624 L0.733282807,1.46663624 Z M1.46652265,2.19997585 L6.23275348,2.19997585 L6.23275348,10.6332309 L1.46652265,10.6332309 L1.46652265,2.19997585 Z M6.67275754,21.2664189 C7.33269918,17.3358097 5.84048349,16.1331276 4.39961091,15.0038353 C3.32535826,14.1641921 2.32079476,13.3685056 2.19980546,11.3665276 L7.33269918,11.3665276 C7.49768459,13.5665034 9.1145416,15.3998309 11.3436921,16.1331276 C11.3436921,18.2011049 11.3436921,19.5980895 10.3977758,21.2664189 L6.67275754,21.2664189 Z M17.345466,21.2664189 L11.2520049,21.2664189 C12.0659329,19.6457843 12.09893,18.2084524 12.09893,16.338473 C12.580739,16.4437882 13.072301,16.4978853 13.5654527,16.4998188 L15.0319753,16.4998188 C15.525127,16.4978853 16.016732,16.4438312 16.498498,16.338473 C16.4985409,18.2084524 16.527886,19.6457843 17.345466,21.2664189 Z M15.0320183,15.7664792 L13.5654956,15.7664792 C10.6764035,15.7664792 8.30430856,13.8231529 8.08798004,11.3665276 L20.5095339,11.3665276 C20.2932053,13.8231529 17.9210675,15.7664792 15.0320183,15.7664792 Z M20.8981518,10.6331879 L8.43260191,10.6331879 L8.43260191,9.89984834 L20.8981518,9.89984834 C21.1006456,9.89984834 21.2647718,10.0639872 21.2647718,10.2664967 C21.2647718,10.4690062 21.1006456,10.6331879 20.8981518,10.6331879 Z" id="Shape" stroke="#000000" stroke-width="0.5" fill="#000000" fill-rule="nonzero"></path>
            </g>
        </g>
    </g>
</svg>