<?xml version="1.0" encoding="UTF-8"?>
<svg width="45px" height="35px" viewBox="0 0 45 35" version="1.1" xmlns="http://www.w3.org/2000/svg" xmlns:xlink="http://www.w3.org/1999/xlink">
    <title>􀄬</title>
    <g id="Visual-Guide" stroke="none" stroke-width="1" fill="none" fill-rule="evenodd">
        <g id="Symbols-Copy" transform="translate(-474.000000, -354.000000)" fill="#294337" fill-rule="nonzero">
            <path d="M485.855469,388.464844 C487.244141,388.464844 488.263672,387.427734 488.263672,386.021484 L488.263672,365.296875 L488.193359,362.167969 L489.564453,363.767578 L493.132812,367.494141 C493.589844,367.96875 494.169922,368.179688 494.820312,368.179688 C496.208984,368.179688 497.210938,367.195312 497.210938,365.789062 C497.210938,365.173828 496.929688,364.488281 496.472656,364.03125 L487.648438,354.960938 C486.646484,353.923828 485.064453,353.923828 484.0625,354.960938 L475.220703,364.03125 C474.763672,364.488281 474.482422,365.173828 474.482422,365.789062 C474.482422,367.195312 475.484375,368.179688 476.873047,368.179688 C477.541016,368.179688 478.121094,367.96875 478.560547,367.494141 L482.128906,363.767578 L483.517578,362.167969 L483.429688,365.296875 L483.429688,386.021484 C483.429688,387.427734 484.466797,388.464844 485.855469,388.464844 Z M508.566406,387.691406 L517.408203,378.585938 C517.847656,378.146484 518.146484,377.460938 518.146484,376.845703 C518.146484,375.439453 517.144531,374.455078 515.738281,374.455078 C515.087891,374.455078 514.507812,374.666016 514.068359,375.140625 L510.5,378.849609 L509.111328,380.449219 L509.199219,377.320312 L509.199219,356.595703 C509.199219,355.224609 508.162109,354.1875 506.773438,354.1875 C505.384766,354.1875 504.347656,355.224609 504.347656,356.595703 L504.347656,377.320312 L504.435547,380.449219 L503.064453,378.849609 L499.478516,375.140625 C499.039062,374.666016 498.458984,374.455078 497.808594,374.455078 C496.402344,374.455078 495.400391,375.439453 495.400391,376.845703 C495.400391,377.460938 495.699219,378.146484 496.138672,378.585938 L504.980469,387.691406 C505.982422,388.728516 507.564453,388.728516 508.566406,387.691406 Z" id="􀄬"></path>
        </g>
    </g>
</svg>