<?xml version="1.0" encoding="UTF-8"?>
<svg width="38px" height="38px" viewBox="0 0 38 38" version="1.1" xmlns="http://www.w3.org/2000/svg" xmlns:xlink="http://www.w3.org/1999/xlink">
    <title>􀐫</title>
    <g id="Visual-Guide" stroke="none" stroke-width="1" fill="none" fill-rule="evenodd">
        <g id="Symbols-Copy" transform="translate(-478.000000, -201.000000)" fill="#FFFFFF" fill-rule="nonzero">
            <path d="M496.779297,238.941406 C506.992188,238.941406 515.394531,230.539062 515.394531,220.326172 C515.394531,210.095703 506.992188,201.693359 496.761719,201.693359 C486.53125,201.693359 478.146484,210.095703 478.146484,220.326172 C478.146484,230.539062 486.548828,238.941406 496.779297,238.941406 Z M496.779297,234.160156 C489.097656,234.160156 482.945312,227.990234 482.945312,220.326172 C482.945312,212.644531 489.097656,206.474609 496.761719,206.474609 C504.425781,206.474609 510.613319,212.644531 510.613319,220.326172 C510.630859,227.990234 504.443359,234.160156 496.779297,234.160156 Z M496.761719,223.085938 C497.746094,223.085938 498.501953,222.3125 498.501953,221.328125 L498.501953,210.5 C498.501953,209.515625 497.746094,208.759766 496.761719,208.759766 C495.794922,208.759766 495.021484,209.515625 495.021484,210.5 L495.021484,219.587891 L488.517578,219.587891 C487.533203,219.587891 486.777344,220.361328 486.777344,221.328125 C486.777344,222.3125 487.533203,223.085938 488.517578,223.085938 L496.761719,223.085938 Z" id="􀐫"></path>
        </g>
    </g>
</svg>