<?xml version="1.0" encoding="UTF-8"?>
<svg width="106px" height="105px" viewBox="0 0 106 105" version="1.1" xmlns="http://www.w3.org/2000/svg" xmlns:xlink="http://www.w3.org/1999/xlink">
    <title>􀆅</title>
    <g id="Hifi-FIX-BGT" stroke="none" stroke-width="1" fill="none" fill-rule="evenodd">
        <g id="Track-Emergency-info-Copy-2" transform="translate(-143.000000, -352.000000)" fill="#757575" fill-rule="nonzero">
            <path d="M183.025635,456.82666 C185.650146,456.82666 187.725342,455.666992 189.190186,453.408691 L246.868408,362.588379 C247.967041,360.818359 248.394287,359.475586 248.394287,358.071777 C248.394287,354.714844 246.197021,352.517578 242.840088,352.517578 C240.398682,352.517578 239.055908,353.311035 237.591064,355.630371 L182.781494,442.97168 L154.339111,405.740234 C152.813232,403.604004 151.287354,402.749512 149.090088,402.749512 C145.611084,402.749512 143.230713,405.129883 143.230713,408.486816 C143.230713,409.890625 143.841064,411.477539 145.000732,412.942383 L176.677979,453.286621 C178.509033,455.666992 180.401123,456.82666 183.025635,456.82666 Z" id="􀆅"></path>
        </g>
    </g>
</svg>