<?xml version="1.0" encoding="UTF-8"?>
<svg width="39px" height="37px" viewBox="0 0 39 37" version="1.1" xmlns="http://www.w3.org/2000/svg" xmlns:xlink="http://www.w3.org/1999/xlink">
    <title>􀙊 copy</title>
    <g id="Visual-Guide" stroke="none" stroke-width="1" fill="none" fill-rule="evenodd">
        <g id="Symbols-Copy" transform="translate(-592.000000, -229.000000)" fill="#FFFFFF" fill-rule="nonzero">
            <path d="M617.25,265.537109 C618.181641,265.537109 619.113281,265.291016 619.992188,264.798828 L627.867188,260.369141 C629.396484,259.525391 630.046875,258.347656 630.046875,256.695312 L630.046875,233.228516 C630.046875,231.400391 628.833984,230.205078 626.953125,230.205078 C626.126953,230.205078 625.458984,230.556641 624.527344,231.083984 L616.458984,235.548828 L607.828125,230.503906 C606.966797,230.011719 606.017578,229.765625 605.068359,229.765625 C604.189453,229.765625 603.310547,229.976562 602.537109,230.433594 L594.662109,234.863281 C593.132812,235.724609 592.482422,236.814453 592.482422,238.449219 L592.482422,262.074219 C592.482422,263.902344 593.695312,265.044922 595.576172,265.044922 C596.402344,265.044922 597.070312,264.763672 598.019531,264.236328 L605.841797,259.982422 L614.472656,264.78125 C615.369141,265.291016 616.318359,265.537109 617.25,265.537109 Z M597.070312,259.648438 C596.771484,259.648438 596.613281,259.384766 596.613281,259.050781 L596.613281,239.767578 C596.613281,239.117188 596.806641,238.818359 597.369141,238.484375 L602.994141,235.285156 C603.152344,235.179688 603.292969,235.109375 603.46875,235.021484 L603.46875,256.220703 L597.509766,259.507812 C597.333984,259.595703 597.193359,259.648438 597.070312,259.648438 Z M614.806641,259.894531 C614.595703,259.789062 614.384766,259.683594 614.173828,259.560547 L607.740234,255.957031 L607.740234,235.548828 C607.916016,235.636719 608.109375,235.742188 608.285156,235.847656 L614.806641,239.662109 L614.806641,259.894531 Z M619.060547,260.035156 L619.060547,239.082031 L625.019531,235.830078 C625.142578,235.759766 625.265625,235.724609 625.371094,235.724609 C625.6875,235.724609 625.916016,235.970703 625.916016,236.287109 L625.916016,255.306641 C625.916016,255.939453 625.705078,256.255859 625.160156,256.572266 L619.886719,259.595703 C619.623047,259.753906 619.341797,259.894531 619.060547,260.035156 Z" id="􀙊-copy"></path>
        </g>
    </g>
</svg>