<?xml version="1.0" encoding="UTF-8"?>
<svg width="38px" height="38px" viewBox="0 0 38 38" version="1.1" xmlns="http://www.w3.org/2000/svg" xmlns:xlink="http://www.w3.org/1999/xlink">
    <title>􀐫</title>
    <g id="Visual-Guide" stroke="none" stroke-width="1" fill="none" fill-rule="evenodd">
        <g id="Symbols-Copy" transform="translate(-546.000000, -352.000000)" fill="#294337" fill-rule="nonzero">
            <path d="M564.779297,389.941406 C574.992188,389.941406 583.394531,381.539062 583.394531,371.326172 C583.394531,361.095703 574.992188,352.693359 564.761719,352.693359 C554.53125,352.693359 546.146484,361.095703 546.146484,371.326172 C546.146484,381.539062 554.548828,389.941406 564.779297,389.941406 Z M564.779297,385.160156 C557.097656,385.160156 550.945312,378.990234 550.945312,371.326172 C550.945312,363.644531 557.097656,357.474609 564.761719,357.474609 C572.425781,357.474609 578.613319,363.644531 578.613319,371.326172 C578.630859,378.990234 572.443359,385.160156 564.779297,385.160156 Z M564.761719,374.085938 C565.746094,374.085938 566.501953,373.3125 566.501953,372.328125 L566.501953,361.5 C566.501953,360.515625 565.746094,359.759766 564.761719,359.759766 C563.794922,359.759766 563.021484,360.515625 563.021484,361.5 L563.021484,370.587891 L556.517578,370.587891 C555.533203,370.587891 554.777344,371.361328 554.777344,372.328125 C554.777344,373.3125 555.533203,374.085938 556.517578,374.085938 L564.761719,374.085938 Z" id="􀐫"></path>
        </g>
    </g>
</svg>