<?xml version="1.0" encoding="UTF-8"?>
<svg width="38px" height="38px" viewBox="0 0 38 38" version="1.1" xmlns="http://www.w3.org/2000/svg" xmlns:xlink="http://www.w3.org/1999/xlink">
    <title>􀒥</title>
    <g id="Visual-Guide" stroke="none" stroke-width="1" fill="none" fill-rule="evenodd">
        <g id="Symbols-Copy" transform="translate(-546.000000, -201.000000)" fill="#FFFFFF" fill-rule="nonzero">
            <path d="M564.779297,238.941406 C574.992188,238.941406 583.394531,230.539062 583.394531,220.326172 C583.394531,210.095703 574.992188,201.693359 564.761719,201.693359 C554.53125,201.693359 546.146484,210.095703 546.146484,220.326172 C546.146484,230.539062 554.548828,238.941406 564.779297,238.941406 Z M564.779297,234.160156 C557.097656,234.160156 550.945312,227.990234 550.945312,220.326172 C550.945312,212.644531 557.097656,206.474609 564.761719,206.474609 C572.425781,206.474609 578.613319,212.644531 578.613319,220.326172 C578.630859,227.990234 572.443359,234.160156 564.779297,234.160156 Z M572.759766,227.9375 C572.882812,227.814453 572.970703,227.691406 573.076172,227.568359 C573.761719,226.689453 574.042969,225.546875 572.988281,224.773438 C572.109375,224.140625 571.212891,223.507812 570,222.664062 C568.945312,221.925781 568.3125,222.136719 567.556641,222.875 L566.871094,223.542969 C566.677734,223.736328 566.326172,223.701172 566.115234,223.560547 C565.517578,223.191406 564.515625,222.382812 563.566406,221.451172 C562.652344,220.519531 561.773438,219.464844 561.457031,218.902344 C561.351562,218.726562 561.246094,218.410156 561.474609,218.164062 L562.142578,217.460938 C562.898438,216.652344 563.091797,216.089844 562.353516,215.017578 L560.261719,212.046875 C559.558594,211.0625 558.521484,211.167969 557.326172,212.064453 C557.220703,212.134766 557.150391,212.1875 557.097656,212.257812 C554.074219,215.28125 556.623047,220.326172 560.648438,224.369141 C564.691406,228.412109 569.753906,230.943359 572.759766,227.9375 Z" id="􀒥"></path>
        </g>
    </g>
</svg>