<?xml version="1.0" encoding="UTF-8"?>
<svg width="26px" height="21px" viewBox="0 0 26 21" version="1.1" xmlns="http://www.w3.org/2000/svg" xmlns:xlink="http://www.w3.org/1999/xlink">
    <title>foggy</title>
    <defs>
        <filter color-interpolation-filters="auto" id="filter-1">
            <feColorMatrix in="SourceGraphic" type="matrix" values="0 0 0 0 0.160784 0 0 0 0 0.262745 0 0 0 0 0.215686 0 0 0 1.000000 0"></feColorMatrix>
        </filter>
    </defs>
    <g id="Hifi-FIX-BGT" stroke="none" stroke-width="1" fill="none" fill-rule="evenodd">
        <g id="foggy" transform="translate(-140.000000, -610.000000)" filter="url(#filter-1)">
            <g transform="translate(140.000000, 610.000000)">
                <path d="M20.9331453,8.58935477 C20.5104174,8.32666932 19.9843176,8 19.00378,8 C18.0226649,8 17.49604,8.32666932 17.0727871,8.58935477 C16.7036615,8.81885298 16.4116054,8.99997656 15.7816086,8.99997656 C15.1521367,8.99997656 14.8601332,8.8188061 14.4910075,8.58935477 C14.0677022,8.32666932 13.5410773,8 12.5600147,8 C12.2504762,8 12,8.22363888 12,8.50001172 C12,8.77638456 12.2504762,9.00002344 12.5600147,9.00002344 C13.1900115,9.00002344 13.4820676,9.1811939 13.8511932,9.41064523 C14.2744986,9.67333068 14.8011235,10 15.7816611,10 C16.7627762,10 17.2894011,9.67333068 17.7121289,9.41064523 C18.0818321,9.18114702 18.3738356,9.00002344 19.0038325,9.00002344 C19.6327268,9.00002344 19.9242054,9.1811939 20.2933835,9.41017648 C20.7161114,9.67286193 21.2427363,10 22.2232739,10 C23.2032865,10 23.7293864,9.67286193 24.1515367,9.41017648 C24.5201374,9.1811939 24.8116159,9.00002344 25.4399853,9.00002344 C25.7495238,9.00002344 26,8.77638456 26,8.50001172 C26,8.22363888 25.7495238,8 25.4399853,8 C24.4599727,8 23.9338728,8.32713807 23.5117224,8.58982352 C23.1431218,8.8188061 22.8516432,8.99997656 22.2232739,8.99997656 C21.5937495,9.00002344 21.302271,8.81885298 20.9331453,8.58935477 Z" id="Path" fill="#000000" fill-rule="nonzero"></path>
                <path d="M25.4399328,19 C24.4599202,19 23.9338203,19.3271381 23.5116699,19.5898235 C23.1430693,19.8188061 22.8515907,19.9999766 22.2232214,19.9999766 C21.5937495,19.9999766 21.302271,19.8188061 20.9331453,19.5893548 C20.5104174,19.3266693 19.9843176,19 19.00378,19 C18.0226649,19 17.49604,19.3266693 17.0727871,19.5893548 C16.7036615,19.818853 16.4116054,19.9999766 15.7816086,19.9999766 C15.1521367,19.9999766 14.8601332,19.8188061 14.4910075,19.5893548 C14.0677022,19.3266693 13.5410773,19 12.5600147,19 C12.2504762,19 12,19.2236389 12,19.5000117 C12,19.7763846 12.2504762,20.0000234 12.5600147,20.0000234 C13.1900115,20.0000234 13.4820676,20.1811939 13.8511932,20.4106452 C14.2744986,20.6733307 14.8011235,21 15.7816611,21 C16.7627762,21 17.2894011,20.6733307 17.7121289,20.4106452 C18.0818321,20.181147 18.3738356,20.0000234 19.0038325,20.0000234 C19.6327268,20.0000234 19.9242054,20.1811939 20.2933835,20.4101765 C20.7161114,20.6728619 21.2427363,21 22.2232739,21 C23.2032865,21 23.7293864,20.6728619 24.1515367,20.4101765 C24.5201374,20.1811939 24.8116159,20.0000234 25.4399853,20.0000234 C25.7495238,20.0000234 26,19.7763846 26,19.5000117 C26,19.2236389 25.7494713,19 25.4399328,19 Z" id="Path" fill="#000000" fill-rule="nonzero"></path>
                <path d="M25.4834695,15 C24.5795533,15 24.0943042,15.3271381 23.7049331,15.5898235 C23.3649537,15.8188061 23.096108,15.9999766 22.5165305,15.9999766 C22.2310272,15.9999766 22,16.2236154 22,16.4999883 C22,16.7763611 22.2310272,17 22.5165305,17 C23.4204467,17 23.9056958,16.6728619 24.2950669,16.4101765 C24.6350463,16.1811939 24.903892,16.0000234 25.4834695,16.0000234 C25.7689728,16.0000234 26,15.7763846 26,15.5000117 C26,15.2236389 25.7689728,15 25.4834695,15 Z" id="Path" fill="#000000" fill-rule="nonzero"></path>
                <path d="M14.2474853,16.4106122 C14.6737443,16.6732915 15.2040438,16.9999531 16.1914232,16.9999531 C17.1793842,16.9999531 17.7096836,16.6732915 18.1358898,16.4106122 C18.5075911,16.1811193 18.801685,16 19.4360777,16 C19.747776,16 20,15.7763664 20,15.5 C20,15.2236336 19.747776,15 19.4360777,15 C18.4481168,15 17.9178173,15.3266617 17.4921398,15.589341 C17.119857,15.8188338 16.8258159,15.9999531 16.1914232,15.9999531 C15.5575591,15.9999531 15.2635181,15.8187869 14.8918168,15.589341 C14.4655578,15.3266617 13.9352583,15 12.9473502,15 C11.9726058,15 11.4302,15.307631 10.9516564,15.5786069 C10.536975,15.8139589 10.2087825,16 9.56392228,16 C9.25222398,16 9,16.2236336 9,16.5 C9,16.7763664 9.25222398,17 9.56392228,17 C10.5386667,17 11.0810725,16.692369 11.5596161,16.4213931 C11.9742975,16.1860411 12.30249,16 12.9473502,16 C13.5816901,16 13.875784,16.1811193 14.2474853,16.4106122 Z" id="Path" fill="#000000" fill-rule="nonzero"></path>
                <path d="M25.4812059,12 C24.5733283,12 24.0859527,12.3271381 23.6948752,12.5898235 C23.3534059,12.8188061 23.083382,12.9999766 22.5012645,12.9999766 C21.9181257,12.9999766 21.6481018,12.8188061 21.3061461,12.5893548 C20.9145337,12.3266693 20.427158,12 19.5187941,12 C19.2320396,12 19,12.2236389 19,12.5000117 C19,12.7763846 19.2320396,13.0000234 19.5187941,13.0000234 C20.1013979,13.0000234 20.3714218,13.1811939 20.7134262,13.4101765 C21.1050386,13.6728619 21.5929006,14 22.5012645,14 C23.4091421,14 23.8965177,13.6728619 24.2875952,13.4101765 C24.6290645,13.1811939 24.8990884,13.0000234 25.4812059,13.0000234 C25.7679604,13.0000234 26,12.7763846 26,12.5000117 C26,12.2236389 25.7679604,12 25.4812059,12 Z" id="Path" fill="#000000" fill-rule="nonzero"></path>
                <path d="M8.08817403,17.8125174 L5.00138297,17.8125174 C2.85667534,17.8125174 1.11140107,15.9477695 1.11140107,13.6562448 C1.11140107,11.7470212 2.31991233,10.0893995 4.05023455,9.62482678 L4.05112021,9.62465979 C4.35880946,9.54172026 4.67848118,9.49997217 5.00138297,9.49997217 C5.30855124,9.49997217 5.55710956,9.23439867 5.55710956,8.90620303 C5.55710956,8.5780074 5.30855124,8.31248956 5.00138297,8.31248956 C4.84436039,8.31248956 4.68864024,8.3276302 4.53312849,8.34304916 C5.04873982,4.27711941 8.30323349,1.1874826 12.2256202,1.1874826 C15.5284085,1.1874826 18.4730248,3.41349064 19.5523858,6.72661887 C19.5840612,6.82380842 19.6415771,6.89984561 19.7082622,6.96447164 C19.8194388,7.09684091 19.9783369,7.18033709 20.1607311,7.1626359 L20.3257246,7.14465639 C21.2846356,7.03332816 22.2853811,7.35395347 23.1542151,7.92222844 C23.2448651,7.9813994 23.3446844,8.00923145 23.4434617,8.00923145 C23.630701,8.00923145 23.813564,7.90831241 23.9183326,7.7251218 C24.078429,7.44563227 23.9959582,7.07975203 23.7338024,6.9086962 C22.7280035,6.25113599 21.5698707,5.89889346 20.4482585,5.96212789 C19.1160672,2.38637635 15.87142,0 12.2256202,0 C7.60897902,0 3.79662275,3.74458081 3.38312299,8.59838047 C1.37188977,9.32952864 0,11.3502474 0,13.6562448 C0,16.6029918 2.24348495,19 5.00138297,19 L8.08817403,19 C8.3953423,19 8.64390061,18.7344265 8.64390061,18.4062309 C8.64390061,18.0780352 8.3953423,17.8125174 8.08817403,17.8125174 Z" id="Path" fill="#000000" fill-rule="nonzero"></path>
            </g>
        </g>
    </g>
</svg>