<?xml version="1.0" encoding="UTF-8"?>
<svg width="25px" height="25px" viewBox="0 0 25 25" version="1.1" xmlns="http://www.w3.org/2000/svg" xmlns:xlink="http://www.w3.org/1999/xlink">
    <title>volcano</title>
    <defs>
        <filter color-interpolation-filters="auto" id="filter-1">
            <feColorMatrix in="SourceGraphic" type="matrix" values="0 0 0 0 0.160784 0 0 0 0 0.262745 0 0 0 0 0.215686 0 0 0 1.000000 0"></feColorMatrix>
        </filter>
    </defs>
    <g id="Hifi-FIX-BGT" stroke="none" stroke-width="1" fill="none" fill-rule="evenodd">
        <g id="volcano" transform="translate(-238.000000, -606.000000)" filter="url(#filter-1)">
            <g transform="translate(238.000000, 606.000000)">
                <path d="M24.8041061,24.1005671 C21.1061371,21.2137618 18.9793215,17.5533994 17.8465096,14.9912651 C16.7448544,12.5003953 16.341967,10.5336572 16.2654721,10.1239864 C16.2686952,10.0951223 16.2704142,10.0660592 16.2706291,10.0369961 C16.2706291,9.48161155 15.7065868,9.05979797 14.5944027,8.78349914 C13.7310419,8.56871062 12.5926434,8.45046748 11.3889233,8.45046748 C10.1849883,8.45046748 9.0465898,8.56871062 8.18322903,8.78349914 C7.071045,9.05999702 6.50721754,9.4818106 6.50721754,10.0369961 C6.50721754,10.0401811 6.50721754,10.043167 6.5074324,10.046352 C6.50270516,10.132148 6.4036486,11.7553041 5.6023862,13.9786339 C4.84431331,16.0819289 3.28798622,19.1458999 0.177695649,21.7966169 C-0.0459874095,21.9871198 -0.0603839322,22.3096012 0.145249826,22.5166262 C0.35088353,22.7238503 0.698978224,22.7371875 0.922446423,22.5466847 C2.1882648,21.4665712 3.30367195,20.244128 4.24266816,18.9082191 C4.24438715,19.3515315 4.32861747,19.7456754 4.5598211,20.0116229 C4.7734051,20.2592568 5.11161566,20.3850643 5.4509005,20.342863 C6.45629254,20.243929 7.1329285,19.2151736 7.67655784,18.3884668 C7.78657295,18.2212543 7.92967852,18.0036789 8.05430507,17.8372626 C8.15937809,18.150388 8.25886442,18.6337119 8.34373932,19.0455723 C8.66819799,20.6223469 9.07258945,22.5843075 10.6302058,22.846672 C11.0294403,22.9139551 11.4101957,22.8100445 11.7312164,22.5460875 C11.9628498,22.3555846 12.1650455,22.0812764 12.3496217,21.7072379 C12.6521632,21.0943242 12.8689703,20.2926993 13.0784718,19.5175497 C13.2245856,18.977493 13.3627491,18.4670965 13.5174579,18.0626014 C13.6667948,17.6728369 13.7815371,17.5211512 13.8352555,17.46621 C13.9070231,17.5098047 14.0791366,17.6628838 14.3047536,18.188608 C14.5456265,18.7499644 14.746533,19.4988378 14.9407784,20.2228284 C15.3245421,21.653491 15.5858279,22.5502678 16.0995899,22.9424211 C16.5003286,23.2481812 16.9627358,23.4076303 17.4143995,23.4076303 C17.6303471,23.4080284 17.8445757,23.3704055 18.0454823,23.2967524 C19.1153363,22.9044001 19.4318446,21.7106219 19.5257442,21.0342073 C19.5687188,20.7232716 19.6011647,20.46031 19.6265198,20.2357674 C20.7866205,21.8248839 22.2537752,23.4424662 24.095454,24.880096 C24.327732,25.061442 24.6747523,25.0339714 24.8705019,24.8187848 C25.0662514,24.6035981 25.0368138,24.2821121 24.8043209,24.1007661 L24.8041061,24.1005671 Z M11.3884936,9.4694687 C13.4005668,9.4694687 14.6736909,9.8040929 15.0761486,10.0369961 C14.6736909,10.2698993 13.4005668,10.6045235 11.3884936,10.6045235 C9.37642028,10.6045235 8.10351104,10.2698993 7.70083851,10.0369961 C8.10351104,9.80429195 9.37642028,9.4694687 11.3884936,9.4694687 L11.3884936,9.4694687 Z M18.6133923,19.2382649 C18.5931942,19.5221281 18.5594591,19.9974895 18.4339731,20.9046176 C18.3271811,21.6767813 18.0379617,22.2033018 17.6400164,22.3494137 C17.3879701,22.4419778 17.0813459,22.3713106 16.7990024,22.1557258 C16.5394355,21.9578576 16.219919,20.7656719 16.0082688,19.9769861 C15.5379112,18.2232449 15.0935533,16.5668453 13.9293699,16.4374547 C13.3724184,16.3757453 12.9216143,16.7191282 12.5894202,17.4586456 C12.3674562,17.9525198 12.1944831,18.5925059 12.0111963,19.2697168 C11.8137278,20.0002764 11.6093833,20.7555197 11.3489569,21.2832346 C11.2602142,21.4633862 11.0313742,21.8788298 10.8270297,21.8437948 C10.0115857,21.7066407 9.67230075,20.0582036 9.42433703,18.8544723 C9.24771118,17.9973089 9.10825844,17.3202971 8.8031384,16.9434717 C8.55495976,16.6369153 8.25499668,16.6026766 8.09813917,16.6098428 C7.54161743,16.6347256 7.20426637,17.1479089 6.73691705,17.8581642 C6.37936794,18.4022021 5.8458376,19.2127849 5.39309961,19.3194824 C5.3441085,19.1755602 5.26245666,18.7033838 5.56370901,17.4335637 C5.77492945,16.5423606 6.06414884,15.7313798 6.06715709,15.7232182 L6.06758681,15.7216257 C6.29707146,15.2164049 6.48809378,14.7390528 6.64581079,14.3015134 C7.02828521,13.2498658 7.31127329,12.1693542 7.49155197,11.0723205 C7.71587966,11.1609033 7.9470833,11.2339593 8.18301412,11.2908912 C9.04637494,11.5056797 10.1847735,11.6239228 11.3887084,11.6239228 C12.5924285,11.6239228 13.730827,11.5056797 14.5941878,11.2908912 C14.8503167,11.2293808 15.1006441,11.1485614 15.3425914,11.0490301 C16.0205166,13.7809647 17.1410807,16.4020215 18.6660363,18.8232195 C18.6357391,18.9597764 18.6181195,19.0987221 18.6133923,19.2382649 L18.6133923,19.2382649 Z" id="Shape" fill="#000000" fill-rule="nonzero"></path>
                <path d="M3.36082827,2.42524185 C3.07440222,2.34362617 2.76992675,2.48953902 2.67645687,2.753496 C2.58298704,3.01745299 2.7349024,3.30211242 3.01789053,3.39348215 C3.04389018,3.40144466 5.60174157,4.21401801 6.03127324,6.45466621 C6.08456181,6.73196034 6.37012837,6.91649135 6.66923196,6.86732289 C6.96833555,6.81815447 7.16773794,6.55360029 7.11466423,6.27630615 C6.5682415,3.42672561 3.49168607,2.46485531 3.36082827,2.42524185 Z" id="Path" fill="#000000" fill-rule="nonzero"></path>
                <path d="M10.0354365,0.137415785 C9.85365379,0.268000826 9.77866304,0.489557496 9.84763734,0.692800359 C9.91639679,0.896242323 10.1147248,1.03837297 10.3444243,1.04912237 C10.4185556,1.20837242 10.4733483,1.37458962 10.5081577,1.54478813 C10.6716763,2.24588644 10.7546174,3.35108179 10.7546174,4.82971855 C10.7546174,5.11119299 11.0008622,5.33931871 11.304693,5.33931871 C11.6085238,5.33931871 11.8547685,5.11119299 11.8547685,4.82971855 C11.8547685,1.05270547 11.3330562,0.306618988 10.8229471,0.074910166 C10.568752,-0.0441292716 10.2638468,-0.0198436136 10.0354365,0.137415785 Z" id="Path" fill="#000000" fill-rule="nonzero"></path>
                <path d="M18.8476042,3.44046092 C18.7345808,3.47151468 16.0697225,4.22994301 15.1324454,6.66208942 C15.0303806,6.92724076 15.1795026,7.2188674 15.4654989,7.31342213 C15.7517101,7.40797686 16.0664995,7.26982741 16.1685643,7.00487513 C16.913315,5.07217673 19.131022,4.42582057 19.1621786,4.41706182 C19.4533319,4.33664055 19.6187843,4.05257831 19.5319756,3.78304757 C19.4451667,3.51331779 19.1387574,3.35984059 18.8476042,3.44046092 Z" id="Path" fill="#000000" fill-rule="nonzero"></path>
            </g>
        </g>
    </g>
</svg>