<?xml version="1.0" encoding="UTF-8"?>
<svg width="30px" height="30px" viewBox="0 0 30 30" version="1.1" xmlns="http://www.w3.org/2000/svg" xmlns:xlink="http://www.w3.org/1999/xlink">
    <title>warning</title>
    <defs>
        <filter color-interpolation-filters="auto" id="filter-1">
            <feColorMatrix in="SourceGraphic" type="matrix" values="0 0 0 0 1.000000 0 0 0 0 1.000000 0 0 0 0 1.000000 0 0 0 1.000000 0"></feColorMatrix>
        </filter>
    </defs>
    <g id="Hifi-FIX-BGT" stroke="none" stroke-width="1" fill="none" fill-rule="evenodd">
        <g id="warning" transform="translate(-33.000000, -299.000000)" filter="url(#filter-1)">
            <g transform="translate(33.000000, 299.000000)">
                <path d="M14.999621,21.0816281 C14.1609143,21.0816281 13.4578807,21.8506859 13.4578807,22.7681583 C13.4578807,23.6856308 14.1609143,24.4546886 14.999621,24.4546886 C15.8074929,24.4546886 16.5413613,23.6856308 16.5043595,22.808635 C16.5413613,21.8439397 15.8444947,21.0816281 14.999621,21.0816281 Z" id="Path" fill="#000000" fill-rule="nonzero"></path>
                <path d="M29.2699693,27.0586913 C30.2381823,25.2304925 30.2443492,23.0514954 29.2823033,21.2300427 L19.6248419,2.93456263 C18.6689629,1.0928716 16.9422138,0 15.0057879,0 C13.0693621,0 11.342613,1.09961772 10.386734,2.92781651 L0.716938706,21.243535 C-0.24510725,23.085226 -0.238940289,25.2777153 0.73543959,27.1059141 C1.69748555,28.9138745 3.41806774,30 5.34215965,30 L24.6324145,30 C26.5626733,30 28.2955895,28.9003823 29.2699693,27.0586913 Z M27.1732025,25.7364515 C26.6366769,26.7483697 25.6869648,27.3487745 24.6262475,27.3487745 L5.33599269,27.3487745 C4.28760928,27.3487745 3.3440642,26.7618619 2.8198725,25.7701821 C2.28951383,24.7650101 2.28334687,23.5642006 2.81370553,22.5522824 L12.4835008,4.2433101 C13.0076925,3.23813807 13.9450706,2.64447942 15.0057879,2.64447942 C16.0603383,2.64447942 17.0038834,3.24488419 17.5280751,4.25005622 L27.1917034,22.5590286 C27.7097281,23.5439622 27.7035612,24.7312795 27.1732025,25.7364515 Z" id="Shape" fill="#000000" fill-rule="nonzero"></path>
                <path d="M14.6172694,9.24218574 C13.883401,9.47155386 13.4270459,10.2001349 13.4270459,11.0838768 C13.4640476,11.6168203 13.4948824,12.15651 13.5318842,12.6894536 C13.6367225,14.720036 13.7415609,16.7101417 13.8463992,18.7407241 C13.883401,19.4288284 14.3705909,19.9280414 14.999621,19.9280414 C15.628651,19.9280414 16.1220079,19.3950978 16.1528427,18.7002474 C16.1528427,18.2819879 16.1528427,17.897459 16.1898445,17.4724533 C16.2576811,16.170452 16.3316846,14.8684506 16.3995212,13.5664493 C16.436523,12.7231842 16.5043595,11.879919 16.5413613,11.0366539 C16.5413613,10.7330785 16.5043595,10.4632336 16.3995212,10.1933888 C16.0850062,9.43782325 15.3511378,9.05329436 14.6172694,9.24218574 Z" id="Path" fill="#000000" fill-rule="nonzero"></path>
            </g>
        </g>
    </g>
</svg>