<?xml version="1.0" encoding="UTF-8"?>
<svg width="30px" height="30px" viewBox="0 0 30 30" version="1.1" xmlns="http://www.w3.org/2000/svg" xmlns:xlink="http://www.w3.org/1999/xlink">
    <title>compass copy</title>
    <defs>
        <filter color-interpolation-filters="auto" id="filter-1">
            <feColorMatrix in="SourceGraphic" type="matrix" values="0 0 0 0 1.000000 0 0 0 0 1.000000 0 0 0 0 1.000000 0 0 0 1.000000 0"></feColorMatrix>
        </filter>
    </defs>
    <g id="Hifi-FIX-BGT" stroke="none" stroke-width="1" fill="none" fill-rule="evenodd">
        <g id="compass-copy" transform="translate(-33.000000, -367.000000)" filter="url(#filter-1)">
            <g transform="translate(33.000000, 367.000000)">
                <path d="M15,0 C6.72915996,0 0,6.72915996 0,15 C0,23.27084 6.72915996,30 15,30 C23.27084,30 30,23.27084 30,15 C30,6.72915996 23.2709012,0 15,0 Z M15,27.3913416 C8.1678168,27.3913416 2.60865844,21.8321832 2.60865844,15 C2.60865844,8.1678168 8.1678168,2.60871958 15,2.60871958 C21.8321832,2.60871958 27.3913416,8.1678168 27.3913416,15 C27.3913416,21.8321832 21.8321832,27.3913416 15,27.3913416 Z" id="Shape" fill="#000000" fill-rule="nonzero"></path>
                <path d="M22.8008225,8.18762921 C22.6031317,8.00179865 22.3045181,7.94834626 22.049495,8.05274545 L12.5047918,11.870773 C12.3439163,11.9344267 12.2157017,12.0552911 12.1461615,12.2055066 L8.05556527,21.1142176 C7.94511917,21.3535006 8.00238752,21.6309041 8.20007837,21.8154819 C8.33097745,21.9350935 8.50553086,22 8.68276872,22 C8.77276184,22 8.86409718,21.9821627 8.95140585,21.9491129 L18.4961091,18.1310853 C18.6569846,18.0661789 18.7851992,17.9465672 18.8547394,17.7963517 L22.9453356,8.88764069 C23.0544395,8.64835775 22.9971711,8.37089453 22.8008225,8.18762921 Z M15.5004504,16.2729587 C14.749123,16.2729587 14.1369397,15.7015074 14.1369397,15.0003028 C14.1369397,14.2990385 14.7491869,13.7276468 15.5004504,13.7276468 C16.2517779,13.7276468 16.8639612,14.2990981 16.8639612,15.0003028 C16.8640251,15.7015074 16.2517779,16.2729587 15.5004504,16.2729587 Z" id="Shape" fill="#000000" fill-rule="nonzero"></path>
            </g>
        </g>
    </g>
</svg>