<?xml version="1.0" encoding="UTF-8"?>
<svg width="23px" height="23px" viewBox="0 0 23 23" version="1.1" xmlns="http://www.w3.org/2000/svg" xmlns:xlink="http://www.w3.org/1999/xlink">
    <title>wild-boar-head-frontal-outline</title>
    <defs>
        <filter color-interpolation-filters="auto" id="filter-1">
            <feColorMatrix in="SourceGraphic" type="matrix" values="0 0 0 0 0.160784 0 0 0 0 0.262745 0 0 0 0 0.215686 0 0 0 1.000000 0"></feColorMatrix>
        </filter>
    </defs>
    <g id="Hifi-FIX-BGT" stroke="none" stroke-width="1" fill="none" fill-rule="evenodd">
        <g id="wild-boar-head-frontal-outline" transform="translate(-146.000000, -507.000000)" filter="url(#filter-1)">
            <g transform="translate(146.000000, 507.000000)">
                <path d="M22.9840077,14.8437203 C22.9375196,13.5725295 22.7889981,12.4013676 22.5429906,11.3633832 C22.2362141,10.0691866 21.7744521,8.97430933 21.1704448,8.10746998 L21.1441754,8.06662679 C21.1329386,8.0490615 20.9151547,7.71322246 20.5019102,7.21894605 C21.0581893,6.49014191 21.3247162,5.4842181 21.3394481,4.69801588 C21.3456866,4.36400332 21.3004386,4.05117015 21.2566939,3.7484409 C21.2184361,3.48422317 21.1822077,3.23446183 21.1849512,2.99635887 C21.1907011,2.4844783 21.2732297,1.93509662 21.4299815,1.36348629 L21.6544925,0.544718332 L20.8579559,0.62617154 C20.8259366,0.626676737 20.7942179,0.630290834 20.7624617,0.636508636 C19.1156472,0.814881836 17.766289,1.29186499 16.751743,2.05533337 C16.116919,2.53309375 15.7081467,3.0522025 15.4471442,3.49790234 C15.0881297,3.35753545 14.7233651,3.23679351 14.3565712,3.13726981 C13.9425375,1.98526651 13.4392858,1.17889529 12.8585037,0.738130841 L11.885936,0 L11.96745,1.24457083 C11.9682392,1.25389753 12.0164561,2.08090408 11.8999539,2.83088761 C11.8146818,2.82882796 11.7294473,2.87950305 11.6444383,2.87950305 L11.3558888,2.87950305 C11.2711428,2.87950305 11.1858708,2.82882796 11.1006363,2.83088761 C10.9848857,2.08296373 11.0323886,1.27946824 11.0328771,1.27041357 L11.1143535,0.0129408008 L10.1418234,0.744581811 C9.56100376,1.18538512 9.05793989,1.98837541 8.64368073,3.14037871 C8.27688681,3.23990241 7.91212228,3.3590899 7.55310769,3.49945679 C7.29184219,3.05375695 6.88333298,2.53359894 6.24828342,2.05607173 C5.22746136,1.28747366 3.86739251,0.808936063 2.20580853,0.633399735 C2.18457507,0.629785638 2.16304096,0.627181933 2.14154443,0.626404708 L1.34575947,0.544679471 L1.57027042,1.36344743 C1.72702221,1.93505776 1.80955084,2.48443944 1.81530078,2.99632001 C1.81804422,3.2341898 1.78177822,3.48391228 1.743558,3.74813001 C1.69981331,4.05062609 1.65456537,4.36369243 1.66080388,4.69770499 C1.67557334,5.48386835 1.94206266,6.48983102 2.49834172,7.21863516 C2.08505967,7.71295043 1.86731336,8.04875061 1.85607654,8.06635476 L1.82958169,8.10746998 C1.22553675,8.97407616 0.764000256,10.0689145 0.457261324,11.3631112 C0.211253843,12.4013676 0.0627323706,13.5722575 0.0159811782,14.8434482 C-0.0627517382,16.9946524 0.174499289,18.6782 0.184495926,18.7487721 L0.599281224,21.6336768 L1.28333685,18.8043437 C1.39333745,18.3498612 1.56884233,18.0052395 1.75836505,17.7461903 C1.809626,18.0429738 1.89038831,18.3580998 2.00035132,18.6900916 C2.20712388,19.3146698 2.4453896,19.7758753 2.45538624,19.795267 L3.10892582,21.0527398 L3.48819675,19.6801988 C3.57670081,19.3593602 3.84769989,19.1251823 4.11272353,18.966434 C4.61849326,20.0085377 5.54382112,20.8440937 6.82188748,21.4045897 C7.32690558,21.6261377 7.80618047,21.7696524 8.18169326,21.8606266 C8.46471836,22.3836215 8.89600187,22.7194994 9.43901472,22.8278057 C10.0115289,22.9420579 10.5360893,23 10.9973627,23 C11.2248802,23 11.3903884,22.9852716 11.4933989,22.9720588 C11.596447,22.9852716 11.7619176,23 11.9894727,23 C12.4509716,23 12.9752313,22.9420967 13.5477831,22.8278057 C14.0895933,22.7197326 14.5198621,22.3851759 14.8028497,21.8645127 C15.1808804,21.7737717 15.6666193,21.6292466 16.1786651,21.4045897 C17.4567315,20.8438217 18.3817963,20.0085377 18.8878291,18.966434 C19.1528527,19.1254154 19.4238518,19.3593602 19.5123558,19.6801988 L19.8916268,21.0527398 L20.5451663,19.795267 C20.5552006,19.7758753 20.7934287,19.3146698 21.0002013,18.6900916 C21.1102019,18.3578666 21.1907011,18.0427406 21.2421875,17.7459183 C21.4317103,18.0049675 21.6072151,18.3495892 21.7169527,18.8040716 L22.4010083,21.6334048 L22.8152674,18.7485 C22.8254896,18.6782 23.0627782,16.9949244 22.9840077,14.8437203 Z M20.0733701,2.6954561 C20.0680712,2.79214293 20.0646137,2.88805253 20.063599,2.98291287 C20.0598409,3.31408856 20.1043372,3.62225838 20.1475933,3.9200911 C20.1860766,4.18691254 20.2225681,4.4389667 20.218359,4.67551521 C20.2083248,5.20418384 20.0356009,5.87586192 19.7170614,6.36578587 C19.4453107,6.00359889 19.1272974,5.42783041 19.1427809,4.72980439 C19.1578134,4.05738795 19.4703023,3.37642203 20.0733701,2.6954561 Z M2.85262105,3.9200911 C2.89587718,3.62202521 2.94037349,3.31412742 2.93661535,2.98291287 C2.93563824,2.89345424 2.93263173,2.80298522 2.9278589,2.71197214 C3.51814908,3.38388339 3.82541415,4.05556147 3.84315254,4.71942844 C3.86190563,5.41667723 3.54862755,5.99166848 3.27687685,6.35618714 C2.96235858,5.86731244 2.79185202,5.20084177 2.78185538,4.67547635 C2.77760869,4.4389667 2.81410017,4.18691254 2.85262105,3.9200911 Z M13.9947756,20.8247796 C13.9532858,21.0168709 13.8877439,21.2107886 13.7847335,21.3674383 C13.6790171,21.5280131 13.5342538,21.6495322 13.3349599,21.6893262 C13.3106824,21.6942227 13.2871941,21.698614 13.2632172,21.7032774 C12.6744302,21.816247 12.2469049,21.8405353 11.989172,21.8405353 C11.7346711,21.8405353 11.6056544,21.8180347 11.5916365,21.815431 L11.4930983,21.7973216 L11.3945976,21.815431 C11.3805797,21.8179958 11.2513375,21.8405353 10.9970621,21.8405353 C10.7407949,21.8405353 10.3172907,21.8164802 9.73425376,21.705337 C9.70674421,21.7001685 9.67949774,21.694961 9.65123657,21.6893262 C9.57073733,21.6732765 9.37550225,21.6339877 9.20522117,21.3726457 C9.13148658,21.259676 9.06271272,21.1053191 9.00972302,20.8927868 C9.0047247,20.8723847 9.00047801,20.8519437 8.99596825,20.8315415 C8.97420865,20.7337666 8.95846207,20.6376238 8.9477138,20.5468827 C9.02821304,20.5699275 9.11070409,20.5908348 9.19447291,20.6099934 C9.38625051,20.6536735 9.58576987,20.6875216 9.78949833,20.7139084 C9.98601118,20.739246 10.1865077,20.7575885 10.3877558,20.7705293 C10.7607882,20.7945456 11.1360755,20.8004913 11.4930607,20.8004913 C11.8541046,20.8004913 12.2343903,20.7943124 12.6118949,20.7694801 C12.8129175,20.7562672 13.0131885,20.7376915 13.2096637,20.7120431 C13.4131667,20.6854231 13.6124606,20.651303 13.8037121,20.6070788 C13.8839858,20.5887363 13.9627187,20.5686062 14.039986,20.5465718 C14.0297638,20.6355253 14.0150319,20.7298804 13.9947756,20.8247796 Z M14.7035598,18.4819895 C14.674547,18.8327901 14.5125338,19.1174489 14.0594907,19.3165351 C13.9630194,19.3589328 13.8527181,19.3977163 13.7282487,19.4321085 C13.5797272,19.4732237 13.4102354,19.5088984 13.2172176,19.5381221 C12.9411826,19.5799756 12.6168932,19.6097434 12.2371713,19.6260262 C12.050392,19.6340317 11.8503841,19.638695 11.6361329,19.6402495 C11.5891186,19.6404826 11.5418788,19.6407547 11.4933613,19.6407547 C11.4451069,19.6407547 11.3976041,19.6404826 11.3505898,19.6402495 C11.1413369,19.6389282 10.9458011,19.6343037 10.7630806,19.6265314 C10.385313,19.6107538 10.0620382,19.5818021 9.78652941,19.5409589 C9.57877974,19.5099088 9.39801347,19.4721745 9.24099861,19.4274452 C9.12348175,19.3941022 9.0192311,19.3571063 8.9269689,19.3165351 C8.47418886,19.1171768 8.31221327,18.832829 8.2829374,18.4819895 C8.27944234,18.4408354 8.27767601,18.3987098 8.27767601,18.355807 C8.27767601,18.3033054 8.28019396,18.2503375 8.28492921,18.1970587 C8.28718409,18.1709439 8.28992753,18.1448292 8.29346018,18.1185201 C8.32345009,17.8871401 8.39620757,17.6500476 8.50598268,17.4173852 C8.58573029,17.248805 8.68471955,17.0825954 8.80174786,16.9227979 C8.91250008,16.7715498 9.03899889,16.6259755 9.17951553,16.489728 C9.18725729,16.4822666 9.19503663,16.4747275 9.20277839,16.4672661 C9.84282626,15.8581547 10.6561241,15.5225877 11.4931358,15.5225877 C12.3302227,15.5225877 13.1435206,15.8581547 13.7835309,16.4672661 C13.7865374,16.4700642 13.7892808,16.4729399 13.7922873,16.4757768 C13.9338187,16.6112471 14.0612946,16.7560442 14.1727984,16.9067482 C14.2905784,17.0657685 14.3905823,17.2312397 14.4715701,17.3990038 C14.5863435,17.6376508 14.66207,17.8811555 14.6928491,18.1185201 C14.6963441,18.144868 14.6988245,18.1709828 14.7013425,18.1970587 C14.7061153,18.2503375 14.7085957,18.3033054 14.7085957,18.3555349 C14.7085957,18.3990207 14.7067918,18.4408743 14.7035598,18.4819895 Z M9.09172551,15.0976009 C9.17624596,14.9078414 9.25997719,14.7338595 9.33949932,14.5782201 C9.54574573,14.4709242 9.97052767,14.2780557 10.5393213,14.1630264 C10.5543163,14.1599175 10.5693112,14.1568086 10.5845693,14.1539717 C11.2061271,14.034551 11.8224236,14.037932 12.4279342,14.1630264 C12.8419679,14.2485989 13.2509656,14.3910254 13.6532363,14.5901117 C13.7412519,14.7630443 13.8217511,14.9326348 13.8952602,15.0978341 C13.1736984,14.6203457 12.3439023,14.3633562 11.4933237,14.3633562 C10.6425573,14.3633562 9.81302426,14.6203457 9.09172551,15.0976009 Z M21.8559285,16.7100325 C21.5056703,16.3380524 21.1556377,16.1296395 20.9486021,16.0277841 L19.9385659,15.530632 L20.1578154,16.6647979 C20.251844,17.1508358 20.1138077,17.7868003 19.9367995,18.3222308 C19.666026,18.0719643 19.2915279,17.8309856 18.7739952,17.6451122 L18.2331996,17.4509613 L18.0567176,18.0142942 C17.5976615,19.4788975 16.2056109,20.2076628 15.1650587,20.5561317 C15.1770471,20.4232651 15.1823085,20.3035724 15.1840748,20.2045539 C16.430648,19.6572318 17.2774309,18.4419235 17.639452,16.6717541 C17.9142468,15.32867 17.815483,14.1335307 17.8109356,14.0833997 L17.6907129,12.6914669 L16.8228845,13.7627942 C16.4165926,14.2643377 15.8405833,14.8116597 15.2115468,15.346313 C15.0467902,14.8969991 14.8380634,14.4158578 14.5740169,13.9124878 C14.2787402,13.3498933 14.1577283,12.7310277 14.2332668,12.1702596 C14.2402569,12.1180301 14.249502,12.0665778 14.2600247,12.0153975 C14.5590219,12.2674517 14.9625328,12.4184665 15.3995663,12.4184665 L15.3995663,12.4184665 C15.5060718,12.4184665 15.6133289,12.4091398 15.7181057,12.3910693 C16.1946372,12.3083337 16.5981481,12.0451652 16.8254025,11.6692602 C17.0174055,11.3512585 17.0676518,10.9815713 16.9666707,10.627895 C16.8889525,10.355905 16.7274279,10.1188513 16.5106587,9.93476546 C16.524902,9.93037413 16.5388823,9.92598281 16.5531632,9.92182465 C16.8904182,9.82202893 17.5144564,9.69639046 17.9062419,9.97817349 L18.5462522,9.02626683 C17.2839324,8.1185843 15.3013286,9.02444036 14.3485288,9.8088161 C13.3524728,10.6286333 12.9289687,11.8749529 13.1417167,13.1531387 C12.0199135,12.8209138 11.0290814,12.8827421 10.3252956,13.0248966 C10.1550521,13.0592888 9.99503071,13.0993547 9.84624616,13.1425296 C10.0550105,11.8679579 9.63098022,10.6262628 8.63766771,9.80877724 C7.6846424,9.02440149 5.70226407,8.11850658 4.43994429,9.02622797 L5.07999217,9.97813463 C5.41273739,9.73902127 5.93229948,9.76692366 6.46257224,9.92979121 C6.26778814,10.1078924 6.12930088,10.3364355 6.07153836,10.5980884 C5.98404899,10.9954448 6.09277182,11.418916 6.36982149,11.7604288 C6.61357409,12.0608263 6.9690936,12.2785271 7.37087576,12.3731932 C7.51563909,12.4073134 7.66314587,12.4246066 7.80862325,12.4246066 C8.16414277,12.4246066 8.490424,12.3201475 8.74766831,12.1407251 C8.74917156,12.150557 8.7509003,12.1601169 8.75217807,12.1702208 C8.82767899,12.7309888 8.70670464,13.3498544 8.41142802,13.912449 C8.14317238,14.4237855 7.93215313,14.9121938 7.76615634,15.3674147 C7.12738623,14.8260384 6.54160581,14.270983 6.12982702,13.7624833 L5.2620362,12.691156 L5.1417759,14.0830499 C5.13752921,14.1331809 5.03853994,15.3286311 5.31329715,16.6714044 C5.67855024,18.4570794 6.53709605,19.6778283 7.80193378,20.2181942 C7.80392559,20.3141038 7.80918698,20.4280839 7.8204238,20.5540332 C6.78212642,20.2057974 5.40180122,19.4782757 4.9427451,18.0137501 L4.76622552,17.4504173 L4.22546756,17.6445681 C3.70718324,17.8307136 3.33264756,18.0718866 3.06164849,18.3223863 C2.88490342,17.7880439 2.74713022,17.1528177 2.8416473,16.664215 L3.06089686,15.5300102 L2.05082307,16.0272401 C1.84333647,16.1293675 1.49228913,16.3385188 1.14127937,16.7118201 C1.11951977,16.1751072 1.11151495,15.5530938 1.1357925,14.8871283 C1.20381473,13.0322025 1.54332459,10.4590428 2.77463976,8.73414672 L3.01489729,8.39753045 L3.01316855,8.39519878 C3.14917544,8.21472707 3.34591378,7.96760829 3.59996366,7.68294954 L3.59996366,7.68294954 C3.65720005,7.63511132 5.00355171,6.4890538 4.96330209,4.70287354 C4.94379738,3.83343049 4.60477607,2.98520569 3.95172505,2.16721495 C4.58350503,2.37325737 5.13080214,2.64858942 5.58782887,2.99243388 C6.2791377,3.51259189 6.61537799,4.07903367 6.77588791,4.46267207 L6.99840705,4.99472163 L7.51293324,4.76435206 C8.06071891,4.51925407 8.62699461,4.32560839 9.19601374,4.18939966 L9.49952068,4.11676796 L9.6000132,3.81170704 C9.71726699,3.45597103 9.84354031,3.13385002 9.97605213,2.85051255 C10.0075453,3.08061009 10.05129,3.3140497 10.1117959,3.53691905 L10.2347997,3.99112949 L10.6900601,3.9476826 C10.9095727,3.93217696 11.1331066,3.91305722 11.3543479,3.91305722 L11.6428975,3.91305722 C11.8641764,3.91305722 12.0876727,3.93190493 12.3071853,3.9476826 L12.7624457,3.98568892 L12.8854495,3.53404331 C12.9456924,3.31121283 12.9896626,3.07905564 13.0211933,2.8489581 C13.1536675,3.13233443 13.2799409,3.45523267 13.3971946,3.81092981 L13.4977247,4.1162239 L13.8012317,4.18912763 C14.3702884,4.32537522 14.9365641,4.5190209 15.4843122,4.76408003 L15.9988384,4.99441074 L16.2213575,4.46236118 C16.3818674,4.07868392 16.7184084,3.512281 17.4094166,2.99212299 C17.8619335,2.65165946 18.4027291,2.37838705 19.0267297,2.17284983 C18.3769483,2.98878092 18.0396557,3.83517924 18.0201886,4.70256265 C17.980202,6.48874291 19.326253,7.63480043 19.3834894,7.68263865 C19.3972442,7.69425816 19.4114875,7.70486729 19.4259939,7.71497122 C19.6670407,7.9869612 19.8542709,8.22273249 19.9853171,8.39644234 L19.9835507,8.39904604 L20.2227936,8.73434102 C21.8036904,10.9464019 21.9431924,14.530926 21.8559285,16.7100325 Z M15.3793475,16.6924672 C15.4451148,16.6392272 15.5098675,16.5867257 15.5736055,16.534263 C15.9809121,16.1999784 16.3459021,15.8811994 16.6674105,15.5792474 C16.5899178,16.3917976 16.3823936,17.4054936 15.8598626,18.1792603 C15.8488888,18.19531 15.8378775,18.2113208 15.8268661,18.2273705 C15.8261145,18.2115928 15.825626,18.1958151 15.8246113,18.1797654 C15.8213417,18.1223674 15.8160803,18.0649693 15.8096163,18.0075712 C15.7583554,17.5619102 15.6111116,17.1153943 15.3793475,16.6924672 Z M14.8927818,10.8926179 C14.936301,10.8204914 15.0490451,10.73181 15.2348472,10.6997494 C15.2785919,10.6922492 15.3233137,10.6884019 15.3678476,10.6884019 C15.6353516,10.6884019 15.8546012,10.8269812 15.8916564,10.956739 C15.8986465,10.9815713 15.901653,11.010523 15.8748951,11.0547082 C15.8314135,11.1268347 15.7186319,11.2152441 15.5328673,11.2475767 C15.4891226,11.2550769 15.4443632,11.2589242 15.3998669,11.2589242 L15.3998669,11.2589242 C15.1323629,11.2589242 14.9130758,11.1201117 14.8758326,10.9905871 C14.8688049,10.9657936 14.8660615,10.936842 14.8927818,10.8926179 Z M8.19266701,11.0976499 C8.17767206,11.1661623 8.03242016,11.2651808 7.80914939,11.2651808 C7.74714018,11.2651808 7.6836277,11.2576806 7.6203783,11.2426801 C7.45813964,11.2044018 7.31536811,11.121433 7.22911893,11.0151863 C7.18112755,10.9560006 7.15662451,10.8947164 7.1651179,10.8556997 C7.18011285,10.7871873 7.32536475,10.6881688 7.54863551,10.6881688 C7.61064473,10.6881688 7.6741572,10.695669 7.73740661,10.7106694 C7.89964527,10.7489089 8.0424168,10.8319166 8.12866598,10.9381633 C8.17692043,10.9973101 8.20142347,11.0583612 8.19266701,11.0976499 Z M7.59711545,16.7108097 C7.37110124,17.1280631 7.2273526,17.5680892 7.17684328,18.0072992 C7.1703417,18.0647361 7.1651179,18.1220953 7.16184832,18.1794934 C7.16109669,18.1932114 7.16060813,18.2068906 7.16011958,18.2206086 C7.15936795,18.2374356 7.15835325,18.2542236 7.15812777,18.2710506 C6.58809393,17.486908 6.36707805,16.4243633 6.28657881,15.5792085 C6.61511492,15.8881556 6.98938753,16.2141627 7.40766789,16.5567248 C7.46963953,16.6079051 7.53288893,16.6590853 7.59711545,16.7108097 Z" id="Shape" fill="#000000" fill-rule="nonzero"></path>
                <path d="M9.76184517,17.1184467 C9.59071955,17.2088708 9.4296836,17.3508635 9.29995355,17.5452669 C9.19303494,17.7051508 9.10789087,17.9006065 9.05584731,18.131129 C9.03754233,18.2126285 9.02346464,18.2988429 9.01393329,18.3893512 C8.99455155,18.5739039 8.99455155,18.7763477 9.01923735,18.9979035 C9.01923735,18.9979035 9.57213541,19.0261926 10.0934883,18.8749386 C10.3229585,18.8085939 10.5460878,18.7072246 10.7137838,18.5534448 C10.7676618,18.5038547 10.8159168,18.4490024 10.8565147,18.3881725 C10.9300138,18.2781313 10.9793455,18.1484729 10.9947392,17.9958297 C11.0019177,17.9258226 11.0019177,17.8511006 10.9937024,17.7706535 C10.920961,17.0568169 10.2937663,16.8375343 9.76184517,17.1184467 Z" id="Path" fill="#000000" fill-rule="nonzero"></path>
                <path d="M13.9394514,18.109189 C13.8850918,17.8798177 13.7974703,17.6862751 13.6887111,17.5280139 C13.5558231,17.334766 13.3915877,17.1949876 13.2177804,17.1078787 C12.6902965,16.8431838 12.077943,17.0661557 12.0060352,17.770521 C11.9988563,17.8422206 11.9983379,17.9094574 12.0031237,17.9727787 C12.0158462,18.1355027 12.0660182,18.2724603 12.1432304,18.3878617 C12.1804008,18.44331 12.223354,18.4934534 12.2713724,18.5393866 C12.4345709,18.6954164 12.6542429,18.7990292 12.8818913,18.8676554 C13.4104121,19.0270112 13.9808892,18.9979188 13.9808892,18.9979188 C14.0052573,18.776631 14.0055365,18.5738681 13.9861935,18.3895879 C13.9758241,18.2906905 13.9601504,18.1971821 13.9394514,18.109189 Z" id="Path" fill="#000000" fill-rule="nonzero"></path>
            </g>
        </g>
    </g>
</svg>