<?xml version="1.0" encoding="UTF-8"?>
<svg width="39px" height="37px" viewBox="0 0 39 37" version="1.1" xmlns="http://www.w3.org/2000/svg" xmlns:xlink="http://www.w3.org/1999/xlink">
    <title>􀙊</title>
    <g id="Visual-Guide" stroke="none" stroke-width="1" fill="none" fill-rule="evenodd">
        <g id="Symbols-Copy" transform="translate(-397.000000, -353.000000)" fill="#294337" fill-rule="nonzero">
            <path d="M422.25,389.537109 C423.181641,389.537109 424.113281,389.291016 424.992188,388.798828 L432.867188,384.369141 C434.396484,383.525391 435.046875,382.347656 435.046875,380.695312 L435.046875,357.228516 C435.046875,355.400391 433.833984,354.205078 431.953125,354.205078 C431.126953,354.205078 430.458984,354.556641 429.527344,355.083984 L421.458984,359.548828 L412.828125,354.503906 C411.966797,354.011719 411.017578,353.765625 410.068359,353.765625 C409.189453,353.765625 408.310547,353.976562 407.537109,354.433594 L399.662109,358.863281 C398.132812,359.724609 397.482422,360.814453 397.482422,362.449219 L397.482422,386.074219 C397.482422,387.902344 398.695312,389.044922 400.576172,389.044922 C401.402344,389.044922 402.070312,388.763672 403.019531,388.236328 L410.841797,383.982422 L419.472656,388.78125 C420.369141,389.291016 421.318359,389.537109 422.25,389.537109 Z M402.070312,383.648438 C401.771484,383.648438 401.613281,383.384766 401.613281,383.050781 L401.613281,363.767578 C401.613281,363.117188 401.806641,362.818359 402.369141,362.484375 L407.994141,359.285156 C408.152344,359.179688 408.292969,359.109375 408.46875,359.021484 L408.46875,380.220703 L402.509766,383.507812 C402.333984,383.595703 402.193359,383.648438 402.070312,383.648438 Z M419.806641,383.894531 C419.595703,383.789062 419.384766,383.683594 419.173828,383.560547 L412.740234,379.957031 L412.740234,359.548828 C412.916016,359.636719 413.109375,359.742188 413.285156,359.847656 L419.806641,363.662109 L419.806641,383.894531 Z M424.060547,384.035156 L424.060547,363.082031 L430.019531,359.830078 C430.142578,359.759766 430.265625,359.724609 430.371094,359.724609 C430.6875,359.724609 430.916016,359.970703 430.916016,360.287109 L430.916016,379.306641 C430.916016,379.939453 430.705078,380.255859 430.160156,380.572266 L424.886719,383.595703 C424.623047,383.753906 424.341797,383.894531 424.060547,384.035156 Z" id="􀙊"></path>
        </g>
    </g>
</svg>