<?xml version="1.0" encoding="UTF-8"?>
<svg width="24px" height="24px" viewBox="0 0 24 24" version="1.1" xmlns="http://www.w3.org/2000/svg" xmlns:xlink="http://www.w3.org/1999/xlink">
    <title>camp</title>
    <defs>
        <filter color-interpolation-filters="auto" id="filter-1">
            <feColorMatrix in="SourceGraphic" type="matrix" values="0 0 0 0 0.160784 0 0 0 0 0.262745 0 0 0 0 0.215686 0 0 0 1.000000 0"></feColorMatrix>
        </filter>
    </defs>
    <g id="Hifi-FIX-BGT" stroke="none" stroke-width="1" fill="none" fill-rule="evenodd">
        <g id="camp" transform="translate(-244.000000, -406.000000)" filter="url(#filter-1)">
            <g transform="translate(245.000000, 407.000000)">
                <path d="M21.9751915,21.4675431 L21.3821805,19.7695966 C21.3817508,19.768315 21.3812781,19.7669822 21.3808055,19.7657007 L16.6363736,6.18125727 C16.586358,6.03798038 16.4689675,5.9446838 16.3389012,5.9446838 L14.7710593,5.9446838 C14.59304,5.9446838 14.4487941,6.11682111 14.4487941,6.32914773 C14.4487941,6.54147434 14.59304,6.71361165 14.7710593,6.71361165 L16.1240577,6.71361165 L20.6011384,19.532613 L10.621658,19.532613 L6.14457727,6.71361165 L13.4833304,6.71361165 C13.6613497,6.71361165 13.8055956,6.54147434 13.8055956,6.32914773 C13.8055956,6.11682111 13.6613497,5.9446838 13.4833304,5.9446838 L5.98344465,5.9446838 L5.98344465,4.16579483 L9.5763584,4.16579483 C9.75433475,4.16579483 9.89862364,3.99365751 9.89862364,3.7813309 L9.89862364,0.809065892 C9.89862364,0.59673928 9.75433475,0.424601963 9.5763584,0.424601963 L5.98344465,0.424601963 L5.98344465,0.384463929 C5.98344465,0.172137317 5.83915575,0 5.6611794,0 C5.48320304,0 5.33891415,0.172137317 5.33891415,0.384463929 L5.33891415,0.809065892 L5.33891415,3.7813309 L5.33891415,6.25225494 L1.61842633,16.9049302 L0.0899867178,18.8013114 C-0.0317006394,18.9522263 -0.0297240793,19.1915679 0.0944124938,19.3396634 L0.569947092,19.9069784 L0.0248891379,21.4675431 C-0.0165326885,21.5862143 -0.0055327014,21.7216994 0.0542367597,21.8286829 C0.114006221,21.9356151 0.214638915,22 0.322361445,22 L2.45760503,22 C2.45876519,22 2.45992534,22 2.4610855,22 L8.86350767,22 C8.86389439,22 8.86428111,22 8.86462486,22 C8.86518345,22 8.86578501,22 8.86634361,22 L10.9989661,22 C10.9993528,22 10.9997395,22 11.0001263,22 C11.0006849,22 11.0012864,22 11.001845,22 L21.6777192,22 C21.7854847,22 21.8861174,21.9356664 21.9458439,21.8286829 C22.0056563,21.7216994 22.0166563,21.5862143 21.9751915,21.4675431 Z M5.98344465,1.19352982 L9.25409315,1.19352982 L9.25409315,3.39686697 L5.98344465,3.39686697 L5.98344465,1.19352982 L5.98344465,1.19352982 Z M0.805802284,21.2309696 L1.06284104,20.4949006 L1.67987157,21.2309696 L0.805802284,21.2309696 Z M2.34554266,20.937598 L1.18126278,19.5487092 C1.18057528,19.5478378 1.17984481,19.5470176 1.17915731,19.5461974 L0.773661697,19.0624905 L4.70327818,14.1868728 L2.34554266,20.937598 Z M2.94134665,21.2309696 L5.66126534,13.4432683 L8.38114105,21.2309696 L2.94134665,21.2309696 L2.94134665,21.2309696 Z M9.07938242,21.2309696 L5.95869467,12.2957716 C5.95860874,12.2955665 5.9585228,12.2954128 5.95847983,12.2952077 C5.95285093,12.279214 5.94614781,12.2636817 5.93862829,12.2485594 C5.93712439,12.245535 5.93557751,12.242613 5.93403064,12.2396399 C5.92732752,12.2268757 5.91997988,12.214419 5.91185879,12.202475 C5.91069864,12.2007321 5.90966739,12.1988867 5.90846426,12.197195 C5.90103068,12.1865838 5.89312444,12.1763315 5.88457367,12.1664892 C5.88302679,12.164695 5.88130805,12.1632084 5.87976117,12.1614655 C5.87709711,12.1585436 5.87430415,12.1557755 5.87151118,12.1529561 C5.86274557,12.143934 5.85372214,12.1355783 5.8444409,12.1278378 C5.84216356,12.1259923 5.84001513,12.1239419 5.83769482,12.1221477 C5.82579249,12.112818 5.81358938,12.1045649 5.80099955,12.0973369 C5.79915189,12.0962604 5.7972183,12.095389 5.79537065,12.0943638 C5.783898,12.0881098 5.77216755,12.0826761 5.76026522,12.0781138 C5.75777304,12.0771398 5.75528085,12.0760633 5.75278867,12.0751918 C5.73933946,12.0704245 5.72567542,12.0667336 5.71188246,12.0641193 C5.70930434,12.0636066 5.70664028,12.0634016 5.70401919,12.0629402 C5.69155827,12.060941 5.67905438,12.0598645 5.66650752,12.0596082 C5.6647458,12.059557 5.66302705,12.0591469 5.66126534,12.0591469 C5.66044893,12.0591469 5.65967549,12.0593519 5.65885909,12.0593519 C5.64485129,12.0594544 5.63088647,12.0607872 5.61700758,12.063094 C5.61387086,12.0636066 5.61077711,12.064273 5.60768337,12.0649395 C5.5950076,12.0674513 5.58241777,12.0707833 5.57004279,12.0751406 C5.56871076,12.0756019 5.56729279,12.0759608 5.56596076,12.0764221 C5.55246859,12.0813945 5.5392772,12.0876485 5.52634362,12.0947739 C5.5238944,12.0961579 5.52148816,12.0975933 5.51903894,12.0990286 C5.50752333,12.1057952 5.4963085,12.1132794 5.48539445,12.1217376 C5.48410539,12.1227116 5.48277336,12.123583 5.4814843,12.1246083 C5.47001165,12.1338354 5.45901167,12.1440878 5.44844137,12.1552116 C5.44582028,12.1579797 5.44337106,12.1609016 5.44083591,12.1637723 C5.43683982,12.1682321 5.43271482,12.1723843 5.42889061,12.1771517 L2.85055379,15.3761479 L5.33891415,8.25146737 L5.33891415,9.72611722 C5.33891415,9.93844383 5.48320304,10.1105811 5.6611794,10.1105811 C5.83915575,10.1105811 5.98344465,9.93844383 5.98344465,9.72611722 L5.98344465,8.25146737 C7.01972077,11.2185037 9.09059725,17.148014 10.1092562,20.0646086 C10.1096859,20.0658389 10.1101156,20.0671204 10.1105882,20.0683507 C10.2772209,20.5453935 10.415666,20.9418015 10.5166425,21.2309696 L9.07938242,21.2309696 Z M11.2148408,21.2309696 L10.8902123,20.3015409 L20.8696928,20.3015409 L21.1943213,21.2309696 L11.2148408,21.2309696 L11.2148408,21.2309696 Z" id="Shape" stroke="#000000" stroke-width="0.5" fill="#000000" fill-rule="nonzero"></path>
            </g>
        </g>
    </g>
</svg>