<?xml version="1.0" encoding="UTF-8"?>
<svg width="22px" height="17px" viewBox="0 0 22 17" version="1.1" xmlns="http://www.w3.org/2000/svg" xmlns:xlink="http://www.w3.org/1999/xlink">
    <title>􀌞</title>
    <g id="Hifi-FIX-BGT" stroke="none" stroke-width="1" fill="none" fill-rule="evenodd">
        <g id="Track-Emergency-info" transform="translate(-146.000000, -510.000000)" fill="#294337" fill-rule="nonzero">
            <path d="M165.067383,526.757812 C166.895508,526.757812 167.827148,525.84375 167.827148,524.033203 L167.827148,514.831055 C167.827148,513.020508 166.895508,512.115234 165.067383,512.115234 L162.553711,512.115234 C161.859375,512.115234 161.648438,511.974609 161.25293,511.535156 L160.549805,510.744141 C160.110352,510.260742 159.662109,509.99707 158.756836,509.99707 L155.25,509.99707 C154.344727,509.99707 153.896484,510.260742 153.457031,510.744141 L152.753906,511.535156 C152.358398,511.96582 152.138672,512.115234 151.453125,512.115234 L149.000977,512.115234 C147.164062,512.115234 146.241211,513.020508 146.241211,514.831055 L146.241211,524.033203 C146.241211,525.84375 147.164062,526.757812 149.000977,526.757812 L165.067383,526.757812 Z M165.041016,525.342773 L149.018555,525.342773 C148.157227,525.342773 147.65625,524.876953 147.65625,523.962891 L147.65625,514.910156 C147.65625,513.996094 148.157227,513.530273 149.018555,513.530273 L151.804688,513.530273 C152.595703,513.530273 153.026367,513.380859 153.46582,512.888672 L154.151367,512.115234 C154.652344,511.552734 154.916016,511.412109 155.689453,511.412109 L158.317383,511.412109 C159.09082,511.412109 159.354492,511.552734 159.855469,512.115234 L160.541016,512.888672 C160.980469,513.380859 161.411133,513.530273 162.202148,513.530273 L165.041016,513.530273 C165.911133,513.530273 166.412109,513.996094 166.412109,514.910156 L166.412109,523.962891 C166.412109,524.876953 165.911133,525.342773 165.041016,525.342773 Z M157.03418,524.077148 C159.688477,524.077148 161.824219,521.950195 161.824219,519.269531 C161.824219,516.597656 159.697266,514.470703 157.03418,514.470703 C154.371094,514.470703 152.235352,516.597656 152.235352,519.269531 C152.235352,521.950195 154.371094,524.077148 157.03418,524.077148 Z M163.291992,517.133789 C163.880859,517.125 164.381836,516.641602 164.381836,516.035156 C164.381836,515.455078 163.880859,514.945312 163.291992,514.945312 C162.694336,514.945312 162.18457,515.455078 162.18457,516.035156 C162.18457,516.650391 162.694336,517.133789 163.291992,517.133789 Z M157.03418,522.741211 C155.126953,522.741211 153.5625,521.203125 153.5625,519.269531 C153.5625,517.344727 155.118164,515.797852 157.03418,515.797852 C158.950195,515.797852 160.49707,517.344727 160.49707,519.269531 C160.49707,521.203125 158.950195,522.741211 157.03418,522.741211 Z" id="􀌞"></path>
        </g>
    </g>
</svg>